{"glyphs":{"0":{"ha":815,"x_min":68,"x_max":746,"o":"m 407 949 q 647 810 547 949 q 746 475 746 671 q 647 139 746 278 q 407 0 547 0 q 167 139 267 0 q 68 475 68 278 q 167 810 68 671 q 407 949 267 949 m 407 814 q 263 714 323 814 q 203 475 203 615 q 263 235 203 334 q 407 136 323 136 q 551 235 491 136 q 610 475 610 334 q 551 714 610 615 q 407 814 491 814 z "},"1":{"ha":415,"x_min":68,"x_max":342,"o":"m 224 929 q 273 945 244 945 q 321 925 301 945 q 342 876 342 905 l 342 69 q 321 20 342 41 q 273 0 301 0 q 224 20 244 0 q 203 69 203 41 l 203 715 l 186 699 q 137 678 165 678 q 88 699 109 678 q 68 747 68 719 q 88 796 68 776 l 224 929 z "},"2":{"ha":744,"x_min":68,"x_max":678,"o":"m 217 136 l 610 136 q 658 116 638 136 q 678 68 678 96 q 658 20 678 40 q 610 0 638 0 l 136 0 q 87 20 107 0 q 68 68 68 40 q 157 283 68 194 q 345 424 246 373 q 493 525 444 475 q 543 644 543 574 q 493 764 543 715 q 373 814 444 814 q 253 764 303 814 q 203 644 203 715 q 184 596 203 616 q 136 576 164 576 q 88 596 108 576 q 68 644 68 616 q 157 860 68 771 q 373 949 247 949 q 589 860 500 949 q 678 644 678 771 q 589 429 678 518 q 401 288 500 339 q 253 188 302 237 q 217 136 229 164 z "},"3":{"ha":739,"x_min":68,"x_max":673,"o":"m 92 102 q 87 106 90 104 q 68 154 68 126 q 87 202 68 182 q 136 222 107 222 q 184 202 163 222 q 189 197 186 199 q 190 195 189 196 q 334 136 249 136 q 477 195 418 136 q 537 339 537 255 q 477 483 537 424 q 334 543 418 543 q 286 563 305 543 q 266 610 266 583 q 286 659 266 639 q 334 678 305 678 q 382 698 362 678 q 401 746 401 718 q 382 794 401 774 q 334 814 362 814 q 286 794 306 814 q 284 793 285 793 q 280 789 282 791 q 232 768 260 768 q 184 788 203 768 q 164 836 164 808 q 184 884 164 865 q 189 889 186 887 q 190 890 189 890 q 334 949 249 949 q 477 890 418 949 q 537 746 537 831 q 503 633 537 683 q 574 579 541 612 q 673 339 673 479 q 573 99 673 199 q 334 0 474 0 q 94 100 193 0 q 92 102 93 100 z "},"4":{"ha":815,"x_min":68,"x_max":746,"o":"m 488 922 q 495 930 491 926 q 543 949 515 949 q 591 929 571 949 q 610 882 610 909 l 610 407 l 678 407 q 726 387 707 407 q 746 339 746 367 q 726 291 746 311 q 678 271 707 271 l 610 271 l 610 68 q 591 20 610 39 q 543 0 571 0 q 495 20 515 0 q 475 68 475 39 l 475 271 l 136 271 q 88 291 108 271 q 68 339 68 311 q 81 380 68 362 l 488 922 m 475 407 l 475 678 l 271 407 l 475 407 z "},"5":{"ha":815,"x_min":68,"x_max":745,"o":"m 203 339 l 205 339 q 264 197 205 256 q 406 138 323 138 q 548 197 490 138 q 607 339 607 256 q 548 481 607 422 q 406 540 490 540 q 264 481 323 540 q 263 480 263 481 l 262 481 q 241 467 253 473 q 212 460 227 460 q 189 465 200 460 q 149 501 161 475 q 142 530 142 515 q 147 553 142 541 l 275 904 q 306 941 284 931 q 340 949 324 949 l 609 949 q 658 929 637 949 q 678 880 678 909 q 658 831 678 852 q 609 811 637 811 l 389 811 l 337 670 q 406 677 370 677 q 646 578 547 677 q 745 338 745 479 q 646 99 745 198 q 406 0 547 0 q 167 99 266 0 q 68 338 68 198 l 68 339 q 87 387 68 367 q 136 407 107 407 q 183 387 163 407 q 203 339 203 367 z "},"6":{"ha":815,"x_min":68,"x_max":746,"o":"m 407 543 q 263 483 322 543 q 203 339 203 424 q 263 195 203 255 q 407 136 322 136 q 551 195 491 136 q 610 339 610 255 q 551 483 610 424 q 407 543 491 543 m 370 676 q 407 678 388 678 q 647 579 547 678 q 746 339 746 480 q 647 99 746 199 q 407 0 547 0 q 167 99 266 0 q 68 339 68 199 q 108 502 68 429 l 345 909 q 359 930 350 920 q 407 949 379 949 q 455 929 435 949 q 475 882 475 909 q 466 848 475 863 l 370 676 z "},"7":{"ha":815,"x_min":68,"x_max":746,"o":"m 538 837 l 137 837 q 88 856 109 837 q 68 903 68 875 q 88 952 68 932 q 137 972 109 972 l 677 972 q 726 952 705 972 q 746 903 746 932 q 740 878 746 892 q 726 857 735 867 q 407 68 438 521 q 387 20 407 39 q 339 0 368 0 q 291 20 311 0 q 271 68 271 39 q 538 837 302 525 z "},"8":{"ha":815,"x_min":68,"x_max":746,"o":"m 407 543 q 263 483 322 543 q 203 339 203 424 q 263 195 203 255 q 407 136 322 136 q 551 195 491 136 q 610 339 610 255 q 551 483 610 424 q 407 543 491 543 m 407 814 q 359 794 379 814 q 339 746 339 774 q 359 698 339 718 q 407 678 379 678 q 455 698 435 678 q 475 746 475 718 q 455 794 475 774 q 407 814 435 814 m 576 633 q 647 579 614 612 q 746 339 746 479 q 647 99 746 199 q 407 0 547 0 q 167 99 267 0 q 68 339 68 199 q 168 579 68 479 q 237 633 200 612 q 203 746 203 683 q 263 890 203 831 q 407 949 322 949 q 551 890 491 949 q 610 746 610 831 q 576 633 610 683 z "},"9":{"ha":815,"x_min":68,"x_max":746,"o":"m 407 407 q 551 466 492 407 q 610 610 610 526 q 551 754 610 694 q 407 814 492 814 q 263 754 323 814 q 203 610 203 694 q 263 466 203 526 q 407 407 323 407 m 444 273 q 407 271 426 271 q 167 370 267 271 q 68 610 68 469 q 167 850 68 751 q 407 949 267 949 q 647 850 548 949 q 746 610 746 751 q 706 448 746 520 l 469 41 q 454 20 464 29 q 407 0 435 0 q 359 20 378 0 q 339 68 339 40 q 348 102 339 87 l 444 273 z "}," ":{"ha":405,"x_min":0,"x_max":0,"o":""},"!":{"ha":272,"x_min":68,"x_max":206,"o":"m 137 138 q 186 118 165 138 q 206 69 206 98 q 186 20 206 41 q 137 0 165 0 q 88 20 109 0 q 68 69 68 41 q 88 118 68 98 q 137 138 109 138 m 137 979 q 186 959 165 979 q 206 910 206 939 l 206 340 q 186 292 206 312 q 137 271 165 271 q 88 292 109 271 q 68 340 68 312 l 68 910 q 88 959 68 939 q 137 979 109 979 z "},"\"":{"ha":496,"x_min":68,"x_max":427,"o":"m 206 827 q 186 779 206 799 q 137 758 165 758 q 88 779 108 758 q 68 827 68 799 l 68 902 q 88 951 68 930 q 137 971 108 971 q 186 951 165 971 q 206 902 206 930 l 206 827 m 427 827 q 406 779 427 799 q 357 758 386 758 q 308 779 328 758 q 288 827 288 799 l 288 902 q 308 951 288 930 q 357 971 328 971 q 406 951 386 971 q 427 902 427 930 l 427 827 z "},"#":{"ha":1087,"x_min":68,"x_max":1017,"o":"m 817 610 l 760 407 l 882 407 q 930 387 910 407 q 949 339 949 367 q 930 291 949 311 q 882 271 910 271 l 722 271 l 643 -12 q 625 -47 640 -33 q 576 -68 604 -68 q 528 -48 548 -68 q 509 0 509 -28 q 513 26 509 14 l 582 271 l 383 271 l 304 -12 q 286 -47 300 -33 q 237 -68 265 -68 q 189 -48 209 -68 q 170 0 170 -28 q 174 26 170 14 l 243 271 l 136 271 q 88 291 108 271 q 68 339 68 311 q 88 387 68 367 q 136 407 108 407 l 281 407 l 337 610 l 203 610 q 156 630 176 610 q 136 678 136 650 q 156 726 136 706 q 203 746 176 746 l 375 746 l 441 984 q 460 1021 445 1005 q 509 1040 480 1040 q 556 1021 536 1040 q 576 972 576 1001 q 574 954 576 963 l 516 746 l 714 746 l 781 984 q 800 1021 784 1005 q 848 1040 819 1040 q 896 1021 876 1040 q 916 972 916 1001 q 913 954 916 963 l 855 746 l 949 746 q 998 726 978 746 q 1017 678 1017 706 q 998 630 1017 650 q 949 610 978 610 l 817 610 m 620 407 l 676 610 l 478 610 l 421 407 l 620 407 z "},"$":{"ha":815,"x_min":68,"x_max":746,"o":"m 334 7 q 167 100 239 27 q 68 339 68 199 q 87 387 68 367 q 136 407 107 407 q 183 387 163 407 q 203 339 203 367 q 263 195 203 255 q 334 149 294 163 l 334 555 q 256 606 290 570 q 193 756 193 668 q 256 907 193 845 q 334 958 290 942 l 334 1019 q 354 1067 334 1047 q 403 1088 374 1088 q 452 1067 431 1088 q 472 1019 472 1047 l 472 960 q 549 916 514 947 q 557 909 553 913 q 576 861 576 889 q 556 813 576 833 q 509 793 536 793 q 472 804 488 793 l 472 673 q 647 579 571 654 q 746 339 746 479 q 647 100 746 199 q 472 5 571 24 l 472 -60 q 452 -109 472 -88 q 403 -129 431 -129 q 354 -109 374 -129 q 334 -60 334 -88 l 334 7 m 334 784 q 329 756 329 771 q 334 728 329 741 l 334 784 m 472 146 q 551 195 515 160 q 610 339 610 255 q 551 483 610 423 q 472 532 515 518 l 472 146 z "},"%":{"ha":1092,"x_min":68,"x_max":1017,"o":"m 968 861 q 948 812 968 832 l 186 50 q 137 29 165 29 q 88 50 108 29 q 68 98 68 69 q 88 147 68 127 l 850 909 q 900 930 871 930 q 948 909 928 930 q 968 861 968 890 m 237 814 q 213 784 223 814 q 203 712 203 754 q 213 640 203 670 q 237 610 223 610 q 261 640 252 610 q 271 712 271 670 q 261 784 271 754 q 237 814 252 814 m 357 880 q 382 845 357 880 q 407 712 407 810 q 357 544 407 614 q 237 475 308 475 q 118 544 168 475 q 68 712 68 614 q 118 880 68 810 q 237 949 168 949 q 357 880 308 949 m 848 356 q 824 326 833 356 q 814 254 814 296 q 824 182 814 212 q 848 153 833 153 q 872 182 862 153 q 882 254 882 212 q 872 326 882 296 q 848 356 862 356 m 968 422 q 992 387 968 422 q 1017 254 1017 353 q 968 86 1017 156 q 848 17 918 17 q 728 86 778 17 q 678 254 678 156 q 728 422 678 353 q 848 492 778 492 q 968 422 918 492 z "},"&":{"ha":949,"x_min":68,"x_max":882,"o":"m 286 692 l 333 644 q 387 698 360 666 q 407 746 407 718 q 387 794 407 774 q 339 814 368 814 q 291 794 311 814 q 271 746 271 774 q 286 692 271 719 m 548 237 l 313 473 q 253 425 285 452 q 203 305 203 374 q 253 185 203 235 q 373 136 303 136 q 494 184 440 136 l 548 237 m 588 89 q 373 0 496 0 q 157 90 247 0 q 68 305 68 179 q 157 520 68 430 q 217 569 189 548 l 190 596 q 136 746 136 662 q 195 890 136 830 q 339 949 255 949 q 483 890 424 949 q 543 746 543 830 q 484 602 543 662 q 428 549 455 572 l 644 334 l 766 455 l 766 455 q 814 475 786 475 q 862 455 842 475 q 882 407 882 435 q 862 359 882 379 q 854 352 858 355 l 740 238 l 862 116 q 882 68 882 96 q 862 20 882 40 q 814 0 842 0 q 766 20 786 0 l 766 20 l 644 142 l 588 89 z "},"'":{"ha":272,"x_min":68,"x_max":206,"o":"m 206 827 q 186 779 206 799 q 137 758 165 758 q 88 779 108 758 q 68 827 68 799 l 68 902 q 88 951 68 930 q 137 971 108 971 q 186 951 165 971 q 206 902 206 930 l 206 827 z "},"(":{"ha":420,"x_min":68,"x_max":366,"o":"m 250 -100 q 187 -9 211 -48 q 68 458 68 184 q 187 926 68 732 q 231 991 200 947 q 278 1011 250 1011 q 326 991 307 1011 q 346 943 346 972 q 326 896 346 916 q 283 829 300 863 q 203 458 203 675 q 283 86 203 240 q 347 -3 307 39 q 366 -52 366 -24 q 346 -100 366 -80 q 298 -119 326 -119 q 250 -100 270 -119 z "},")":{"ha":429,"x_min":58,"x_max":356,"o":"m 174 -100 q 237 -9 213 -48 q 356 458 356 184 q 237 926 356 732 q 193 991 224 947 q 146 1011 174 1011 q 98 991 117 1011 q 78 943 78 972 q 98 896 78 916 q 141 829 124 863 q 220 458 220 675 q 141 86 220 240 q 77 -3 117 39 q 58 -52 58 -24 q 78 -100 58 -80 q 125 -119 98 -119 q 174 -100 154 -119 z "},"*":{"ha":543,"x_min":68,"x_max":480,"o":"m 343 824 l 389 839 q 410 842 400 842 q 442 835 427 842 q 477 794 467 822 q 480 772 480 783 q 473 741 480 757 q 432 707 459 715 l 385 692 l 414 652 q 428 612 428 634 q 427 602 428 607 q 399 556 422 573 q 360 543 381 543 q 348 544 354 543 q 302 572 319 549 l 274 611 l 245 572 q 201 544 229 549 q 189 543 194 543 q 149 556 167 543 q 121 602 125 573 q 120 612 120 607 q 134 652 120 634 l 163 692 l 116 707 q 76 741 89 715 q 68 772 68 756 q 71 794 68 783 q 106 834 80 821 q 138 842 121 842 q 159 839 149 842 l 205 824 l 205 872 q 225 921 205 901 q 274 941 245 941 q 323 921 302 941 q 343 872 343 901 l 343 824 z "},"+":{"ha":677,"x_min":134,"x_max":543,"o":"m 269 403 l 203 403 q 154 423 174 403 q 134 472 134 444 q 154 521 134 500 q 203 541 174 541 l 269 541 l 269 608 q 289 656 269 636 q 338 677 309 677 q 387 656 367 677 q 408 608 408 636 l 408 541 l 474 541 q 523 521 503 541 q 543 472 543 500 q 523 423 543 444 q 474 403 503 403 l 408 403 l 408 336 q 387 288 408 308 q 338 267 367 267 q 289 288 309 267 q 269 336 269 308 l 269 403 z "},",":{"ha":272,"x_min":37,"x_max":229,"o":"m 156 -39 q 107 -59 136 -59 q 58 -39 78 -59 q 37 9 37 -18 q 38 11 37 10 q 58 59 38 39 l 111 112 q 159 132 131 132 q 208 112 188 132 q 229 63 229 92 q 208 14 229 34 l 156 -39 z "},"-":{"ha":543,"x_min":68,"x_max":477,"o":"m 68 472 q 88 521 68 500 q 137 541 109 541 l 408 541 q 457 521 437 541 q 477 472 477 500 q 457 423 477 444 q 408 403 437 403 l 137 403 q 88 423 109 403 q 68 472 68 444 z "},".":{"ha":272,"x_min":68,"x_max":206,"o":"m 137 138 q 186 118 165 138 q 206 69 206 98 q 186 20 206 41 q 137 0 165 0 q 88 20 109 0 q 68 69 68 41 q 88 118 68 98 q 137 138 109 138 z "},"/":{"ha":677,"x_min":0,"x_max":678,"o":"m 643 1006 q 675 964 668 991 q 678 945 678 955 q 669 911 678 928 l 130 -22 q 87 -54 115 -47 q 68 -57 78 -57 q 35 -47 51 -57 q 3 -5 10 -33 q 0 14 0 4 q 9 47 0 31 l 549 981 q 591 1013 563 1006 q 610 1016 600 1016 q 643 1006 627 1016 z "},":":{"ha":272,"x_min":68,"x_max":206,"o":"m 137 138 q 186 118 165 138 q 206 69 206 98 q 186 20 206 41 q 137 0 165 0 q 88 20 109 0 q 68 69 68 41 q 88 118 68 98 q 137 138 109 138 m 137 681 q 186 661 165 681 q 206 612 206 640 q 186 563 206 583 q 137 543 165 543 q 88 563 109 543 q 68 612 68 583 q 88 661 68 640 q 137 681 109 681 z "},";":{"ha":272,"x_min":37,"x_max":229,"o":"m 156 -39 q 107 -59 136 -59 q 58 -39 78 -59 q 37 9 37 -18 q 38 11 37 10 q 58 59 38 39 l 111 112 q 159 132 131 132 q 208 112 188 132 q 229 63 229 92 q 208 14 229 34 l 156 -39 m 137 681 q 186 661 165 681 q 206 612 206 640 q 186 563 206 583 q 137 543 165 543 q 88 563 109 543 q 68 612 68 583 q 88 661 68 640 q 137 681 109 681 z "},"<":{"ha":543,"x_min":68,"x_max":475,"o":"m 113 410 q 87 427 99 415 q 68 475 68 446 q 87 523 68 503 q 105 536 96 531 l 376 671 q 407 678 390 678 q 455 658 435 678 q 475 610 475 638 q 455 562 475 582 q 429 546 443 551 l 287 475 l 437 400 q 455 387 446 395 q 475 339 475 367 q 455 291 475 311 q 407 271 435 271 q 369 282 385 271 l 113 410 z "},"=":{"ha":543,"x_min":68,"x_max":477,"o":"m 68 608 q 88 656 68 636 q 137 677 109 677 l 408 677 q 457 656 437 677 q 477 608 477 636 q 457 559 477 579 q 408 538 437 538 l 137 538 q 88 559 109 538 q 68 608 68 579 m 68 336 q 88 385 68 365 q 137 406 109 406 l 408 406 q 457 385 437 406 q 477 336 477 365 q 457 288 477 308 q 408 267 437 267 l 137 267 q 88 288 109 267 q 68 336 68 308 z "},">":{"ha":543,"x_min":68,"x_max":475,"o":"m 430 410 q 455 427 444 415 q 475 475 475 446 q 455 523 475 503 q 437 536 447 531 l 166 671 q 136 678 153 678 q 88 658 108 678 q 68 610 68 638 q 87 562 68 582 q 114 546 100 551 l 256 475 l 106 400 q 87 387 96 395 q 68 339 68 367 q 88 291 68 311 q 136 271 108 271 q 174 282 157 271 l 430 410 z "},"?":{"ha":696,"x_min":68,"x_max":634,"o":"m 399 118 q 410 108 399 118 q 420 69 420 98 q 399 20 420 41 q 351 0 379 0 q 302 20 322 0 q 281 69 281 41 q 302 118 281 98 q 351 138 322 138 q 399 118 379 138 m 68 690 q 151 890 68 807 q 351 973 233 973 q 551 890 468 973 q 634 690 634 807 q 551 490 634 572 q 420 415 494 433 l 420 340 q 399 292 420 312 q 351 271 379 271 q 301 292 321 271 q 281 340 281 312 l 281 476 q 301 525 281 505 q 351 545 321 545 q 367 543 359 545 q 455 586 418 549 q 498 690 498 629 q 455 794 498 751 q 351 838 412 838 q 247 794 290 838 q 203 690 203 751 l 203 689 q 183 641 203 661 q 136 621 163 621 q 88 641 108 621 q 68 689 68 661 l 68 690 z "},"@":{"ha":1249,"x_min":68,"x_max":1177,"o":"m 755 614 q 627 667 702 667 q 499 614 552 667 q 446 486 446 561 q 499 358 446 411 q 627 304 552 304 q 755 358 702 304 q 807 464 800 403 l 807 488 q 808 498 807 493 q 755 614 804 566 m 622 -68 q 230 95 393 -68 q 68 486 68 257 q 230 878 68 715 q 622 1040 393 1040 q 1014 878 851 1040 q 1176 486 1176 715 l 1177 242 q 1127 115 1177 162 q 983 68 1077 68 q 857 115 903 68 q 809 239 810 161 l 809 241 q 627 181 729 181 q 411 270 500 181 q 322 486 322 359 q 411 701 322 612 q 627 790 500 790 q 842 701 753 790 q 931 488 930 613 l 931 242 q 943 211 931 226 q 983 197 954 197 q 1025 211 1013 197 q 1038 242 1038 226 l 1038 486 q 916 780 1038 658 q 622 902 793 902 q 328 780 449 902 q 206 486 206 658 q 328 193 206 315 q 622 71 449 71 q 671 50 650 71 q 691 1 691 30 q 671 -47 691 -27 q 622 -68 650 -68 z "},"A":{"ha":1087,"x_min":68,"x_max":1017,"o":"m 310 271 l 197 39 q 184 20 193 29 q 136 0 163 0 q 87 20 107 0 q 68 68 68 40 q 78 103 68 87 l 480 932 q 494 952 485 943 q 543 972 514 972 q 591 952 570 972 q 604 935 599 944 l 1006 106 q 1017 68 1017 90 q 997 20 1017 40 q 949 0 977 0 q 901 20 921 0 q 888 39 892 29 l 887 39 l 774 271 l 310 271 m 709 407 l 543 749 l 376 407 l 709 407 z "},"B":{"ha":744,"x_min":68,"x_max":689,"o":"m 137 0 q 88 20 109 0 q 68 69 68 41 l 68 903 q 88 952 68 932 q 137 972 109 972 l 339 973 q 490 911 427 973 q 553 760 553 848 q 516 640 553 692 q 589 583 555 617 q 689 342 689 483 q 589 100 689 200 q 347 0 489 0 l 137 0 m 339 683 q 393 705 371 683 q 416 760 416 728 q 393 814 416 791 q 339 837 371 837 l 206 837 l 206 683 l 339 683 m 347 136 q 493 197 433 136 q 553 342 553 257 q 493 486 553 426 q 347 547 433 547 l 206 547 l 206 136 l 347 136 z "},"C":{"ha":949,"x_min":68,"x_max":884,"o":"m 764 764 l 764 764 q 554 834 673 834 q 308 732 410 834 q 206 486 206 630 q 308 240 206 342 q 554 138 410 138 q 764 209 673 138 l 764 208 q 766 210 765 209 q 814 230 786 230 q 863 210 843 230 q 884 161 884 189 q 863 112 884 132 q 862 111 863 111 l 863 110 q 554 0 731 0 q 210 142 353 0 q 68 486 68 285 q 210 830 68 688 q 554 972 353 972 q 863 863 731 972 l 862 862 q 863 861 863 861 q 884 812 884 840 q 863 763 884 783 q 814 743 843 743 q 766 763 786 743 q 764 764 765 764 z "},"D":{"ha":949,"x_min":68,"x_max":891,"o":"m 405 834 l 206 834 l 206 138 l 405 138 q 651 240 549 138 q 753 486 753 342 q 651 732 753 630 q 405 834 549 834 m 137 0 q 88 20 109 0 q 68 69 68 41 l 68 903 q 88 952 68 932 q 137 972 109 972 l 405 972 q 749 830 606 972 q 891 486 891 688 q 749 142 891 285 q 405 0 606 0 l 137 0 z "},"E":{"ha":796,"x_min":68,"x_max":742,"o":"m 68 903 q 88 952 68 932 q 137 972 109 972 l 673 972 q 722 952 701 972 q 742 903 742 932 q 722 854 742 875 q 673 834 701 834 l 206 834 l 206 681 l 408 681 q 457 661 437 681 q 477 612 477 640 q 457 563 477 583 q 408 543 437 543 l 206 543 l 206 138 l 673 138 q 722 118 701 138 q 742 69 742 98 q 722 20 742 41 q 673 0 701 0 l 137 0 q 88 20 109 0 q 68 69 68 41 l 68 903 z "},"F":{"ha":810,"x_min":68,"x_max":742,"o":"m 68 903 q 88 952 68 932 q 137 972 109 972 l 673 972 q 722 952 701 972 q 742 903 742 932 q 722 854 742 875 q 673 834 701 834 l 206 834 l 206 681 l 408 681 q 457 661 437 681 q 477 612 477 640 q 457 563 477 583 q 408 543 437 543 l 206 543 l 206 69 q 186 20 206 41 q 137 0 165 0 q 88 20 109 0 q 68 69 68 41 l 68 903 z "},"G":{"ha":1101,"x_min":68,"x_max":1041,"o":"m 764 764 l 764 764 q 554 834 673 834 q 308 732 410 834 q 206 486 206 630 q 308 240 206 342 q 554 138 410 138 q 800 241 698 138 q 895 397 895 335 q 894 407 895 402 l 701 407 q 652 427 672 407 q 631 476 631 448 q 652 525 631 505 q 701 545 672 545 l 972 545 q 1021 525 1000 545 q 1041 476 1041 505 q 898 142 1040 285 q 554 0 755 0 q 210 142 353 0 q 68 486 68 285 q 210 830 68 688 q 554 972 353 972 q 863 863 731 972 l 862 862 q 863 861 863 861 q 884 812 884 840 q 863 763 884 783 q 814 743 843 743 q 766 763 786 743 q 764 764 765 764 z "},"H":{"ha":949,"x_min":68,"x_max":884,"o":"m 68 903 q 88 952 68 932 q 137 972 109 972 q 186 952 165 972 q 206 903 206 932 l 206 681 l 746 681 l 746 903 q 766 952 746 932 q 815 972 787 972 q 864 952 844 972 q 884 903 884 932 l 884 69 q 864 20 884 41 q 815 0 844 0 q 766 20 787 0 q 746 69 746 41 l 746 543 l 206 543 l 206 69 q 186 20 206 41 q 137 0 165 0 q 88 20 109 0 q 68 69 68 41 l 68 903 z "},"I":{"ha":272,"x_min":68,"x_max":206,"o":"m 137 972 q 186 952 165 972 q 206 903 206 932 l 206 69 q 186 20 206 41 q 137 0 165 0 q 88 20 109 0 q 68 69 68 41 l 68 903 q 88 952 68 932 q 137 972 109 972 z "},"J":{"ha":272,"x_min":-348,"x_max":206,"o":"m -279 -133 q -34 -31 -136 -132 q 68 215 68 71 l 68 903 q 88 952 68 932 q 137 972 109 972 q 186 952 165 972 q 206 903 206 932 l 206 215 q 64 -129 206 14 q -278 -271 -78 -271 l -279 -271 q -328 -251 -307 -271 q -348 -202 -348 -231 q -328 -153 -348 -174 q -279 -133 -307 -133 z "},"K":{"ha":882,"x_min":68,"x_max":814,"o":"m 206 388 l 206 69 q 186 20 206 41 q 137 0 165 0 q 88 20 109 0 q 68 69 68 41 l 68 903 q 88 952 68 932 q 137 972 109 972 q 186 952 165 972 q 206 903 206 932 l 206 563 l 699 954 q 746 972 718 972 q 794 952 774 972 q 814 905 814 932 q 794 857 814 876 q 783 848 789 851 l 315 476 l 787 122 q 794 116 790 119 q 814 68 814 96 q 794 20 814 39 q 746 0 774 0 q 701 18 720 0 l 206 388 z "},"L":{"ha":815,"x_min":68,"x_max":742,"o":"m 68 69 l 68 903 q 88 952 68 932 q 137 972 109 972 q 186 952 165 972 q 206 903 206 932 l 206 138 l 673 138 q 722 118 701 138 q 742 69 742 98 q 722 20 742 41 q 673 0 701 0 l 137 0 q 88 20 109 0 q 68 69 68 41 z "},"M":{"ha":1087,"x_min":68,"x_max":1020,"o":"m 206 751 l 206 69 q 186 20 206 41 q 137 0 165 0 q 88 20 109 0 q 68 69 68 41 l 68 903 q 88 952 68 932 q 137 972 109 972 q 186 952 165 972 q 192 945 189 949 l 543 633 l 904 955 l 905 954 q 951 972 924 972 q 1000 952 979 972 q 1020 903 1020 932 l 1020 69 q 1000 20 1020 41 q 951 0 979 0 q 902 20 922 0 q 882 69 882 41 l 882 753 l 588 492 q 543 475 568 475 q 206 751 515 475 z "},"N":{"ha":949,"x_min":68,"x_max":884,"o":"m 206 709 l 206 69 q 186 20 206 41 q 137 0 165 0 q 88 20 109 0 q 68 69 68 41 l 68 903 q 88 952 68 932 q 137 972 109 972 q 186 952 165 972 q 199 935 194 944 l 746 259 l 746 903 q 766 952 746 932 q 815 972 787 972 q 864 952 844 972 q 884 903 884 932 l 884 69 q 864 20 884 41 q 815 0 844 0 q 766 20 787 0 q 761 25 764 23 l 206 709 z "},"O":{"ha":1101,"x_min":68,"x_max":1040,"o":"m 554 972 q 898 830 755 972 q 1040 486 1040 688 q 898 142 1040 285 q 554 0 755 0 q 210 142 353 0 q 68 486 68 285 q 210 830 68 688 q 554 972 353 972 m 554 834 q 308 732 410 834 q 206 486 206 630 q 308 240 206 342 q 554 138 410 138 q 800 240 698 138 q 902 486 902 342 q 800 732 902 630 q 554 834 698 834 z "},"P":{"ha":753,"x_min":68,"x_max":699,"o":"m 415 837 l 206 837 l 206 543 l 415 543 q 519 586 476 543 q 562 690 562 629 q 519 794 562 751 q 415 837 476 837 m 206 407 l 206 69 q 186 20 206 41 q 137 0 165 0 q 88 20 109 0 q 68 69 68 41 l 68 903 q 88 952 68 932 q 137 972 109 972 l 415 973 q 615 890 532 973 q 699 690 699 808 q 615 490 699 573 q 415 407 532 407 l 206 407 z "},"Q":{"ha":1095,"x_min":68,"x_max":1040,"o":"m 831 275 q 902 486 902 366 q 800 732 902 630 q 554 834 698 834 q 308 732 410 834 q 206 486 206 630 q 308 240 206 342 q 554 138 410 138 q 726 183 649 138 l 698 212 q 678 261 678 232 q 698 310 678 290 q 747 330 718 330 q 796 310 776 330 l 831 275 m 827 83 q 554 0 707 0 q 210 142 353 0 q 68 486 68 285 q 210 830 68 688 q 554 972 353 972 q 898 830 755 972 q 1040 486 1040 688 q 929 177 1040 309 l 988 118 q 1008 69 1008 98 q 988 20 1008 40 q 939 0 968 0 q 890 20 910 0 l 827 83 z "},"R":{"ha":870,"x_min":68,"x_max":814,"o":"m 415 837 l 206 837 l 206 543 l 415 543 q 519 586 476 543 q 562 690 562 629 q 519 794 562 751 q 415 837 476 837 m 467 411 q 415 407 441 407 l 206 407 l 206 69 q 186 20 206 41 q 137 0 165 0 q 88 20 109 0 q 68 69 68 41 l 68 903 q 88 952 68 932 q 137 972 109 972 l 415 973 q 615 890 532 973 q 699 690 699 808 q 616 490 699 573 q 593 470 604 479 l 804 104 q 814 71 814 87 q 811 52 814 61 q 779 9 804 24 q 745 0 762 0 q 726 3 736 0 q 684 35 699 10 l 467 411 z "},"S":{"ha":815,"x_min":68,"x_max":746,"o":"m 68 339 q 87 387 68 367 q 136 407 107 407 q 183 387 163 407 q 203 339 203 367 q 263 195 203 255 q 407 136 322 136 q 551 195 491 136 q 610 339 610 255 q 551 483 610 423 q 407 543 491 543 q 256 605 318 543 q 193 756 193 668 q 256 907 193 845 q 407 970 318 970 q 549 916 489 970 q 557 909 553 913 q 576 861 576 889 q 556 813 576 833 q 509 793 536 793 q 460 813 480 793 q 456 818 458 816 l 455 817 q 407 834 434 834 q 352 811 374 834 q 329 756 329 789 q 352 701 329 724 q 407 678 374 678 q 647 579 547 678 q 746 339 746 479 q 647 99 746 199 q 407 0 547 0 q 167 99 266 0 q 68 339 68 199 z "},"T":{"ha":815,"x_min":68,"x_max":746,"o":"m 477 837 l 477 69 q 457 20 477 41 q 408 0 437 0 q 359 20 380 0 q 339 69 339 41 l 339 837 l 137 837 q 88 857 109 837 q 68 906 68 878 q 88 955 68 935 q 137 975 109 975 l 677 975 q 726 955 705 975 q 746 906 746 935 q 726 857 746 878 q 677 837 705 837 l 477 837 z "},"U":{"ha":815,"x_min":68,"x_max":747,"o":"m 402 0 q 167 100 259 8 q 68 336 69 198 l 68 903 q 88 954 68 936 q 137 972 109 972 q 186 954 165 972 q 206 905 206 936 l 206 338 q 205 326 206 332 q 264 197 210 251 q 406 138 323 138 l 409 138 q 551 197 492 138 q 610 326 606 251 q 609 338 609 332 l 609 905 q 629 954 609 936 q 678 972 650 972 q 727 954 707 972 q 747 903 747 936 l 747 336 q 648 100 746 198 q 413 0 556 8 l 402 0 z "},"V":{"ha":1087,"x_min":68,"x_max":1017,"o":"m 78 869 q 68 905 68 885 q 87 952 68 932 q 136 972 107 972 q 184 953 163 972 q 197 933 193 943 l 543 223 l 887 933 l 888 933 q 901 953 892 943 q 949 972 921 972 q 997 952 977 972 q 1017 905 1017 932 q 1006 867 1017 883 l 604 38 q 591 20 599 28 q 543 0 570 0 q 494 20 514 0 q 480 41 485 30 l 78 869 z "},"W":{"ha":1492,"x_min":68,"x_max":1424,"o":"m 73 877 q 68 905 68 890 q 88 952 68 932 q 136 972 108 972 q 184 953 163 972 q 199 930 193 943 l 481 232 l 682 632 q 699 659 686 646 q 746 678 718 678 q 794 659 774 678 q 807 640 802 650 l 1010 233 l 1293 930 q 1309 953 1299 943 q 1356 972 1329 972 q 1404 952 1384 972 q 1424 905 1424 932 q 1419 877 1424 890 l 1081 45 q 1065 20 1076 31 q 1017 0 1045 0 q 970 20 989 0 q 954 43 959 31 l 747 458 l 536 37 q 523 20 530 28 q 475 0 503 0 q 427 20 447 0 q 411 45 416 31 l 73 877 z "},"X":{"ha":949,"x_min":68,"x_max":882,"o":"m 83 862 q 68 905 68 880 q 88 952 68 932 q 136 972 108 972 q 184 953 163 972 q 189 947 186 950 l 475 594 l 758 944 q 766 953 762 949 q 814 972 785 972 q 862 953 842 972 q 882 905 882 933 q 867 862 882 880 l 562 486 l 867 111 q 882 68 882 92 q 862 20 882 40 q 814 0 842 0 q 766 20 785 0 q 761 25 763 22 l 475 378 l 189 25 q 184 20 186 22 q 136 0 163 0 q 87 20 107 0 q 68 68 68 40 q 87 116 68 96 q 89 117 88 117 l 387 486 l 83 862 z "},"Y":{"ha":815,"x_min":68,"x_max":746,"o":"m 79 866 q 68 905 68 883 q 88 952 68 932 q 136 972 108 972 q 184 953 164 972 q 197 935 192 945 l 407 628 l 622 943 q 631 953 626 948 q 678 972 650 972 q 726 952 707 972 q 746 905 746 932 q 730 861 746 879 l 475 488 l 475 68 q 455 20 475 39 q 407 0 435 0 q 359 20 379 0 q 339 68 339 39 l 339 487 l 79 866 z "},"Z":{"ha":815,"x_min":68,"x_max":746,"o":"m 553 837 l 170 837 q 122 857 142 837 q 102 905 102 877 q 122 953 102 933 q 170 972 142 972 l 678 972 q 726 953 707 972 q 746 905 746 933 q 732 858 746 879 l 260 136 l 678 136 q 726 116 707 136 q 746 68 746 96 q 726 20 746 40 q 678 0 707 0 l 136 0 q 88 20 108 0 q 68 68 68 40 q 78 104 68 88 l 553 837 z "},"[":{"ha":405,"x_min":68,"x_max":335,"o":"m 206 -31 l 266 -31 q 315 -52 294 -31 q 335 -100 335 -72 q 315 -149 335 -129 q 266 -170 294 -170 l 137 -170 q 88 -149 109 -170 q 68 -100 68 -129 l 68 1073 q 88 1122 68 1101 q 137 1142 109 1142 l 266 1142 q 315 1122 294 1142 q 335 1073 335 1101 q 315 1024 335 1044 q 266 1004 294 1004 l 206 1004 l 206 -31 z "},"\\":{"ha":677,"x_min":0,"x_max":678,"o":"m 35 1006 q 68 1016 51 1016 q 87 1013 78 1016 q 130 981 115 1006 l 669 47 q 678 14 678 31 q 675 -5 678 4 q 643 -47 668 -33 q 610 -57 627 -57 q 591 -54 600 -57 q 549 -22 563 -47 l 9 911 q 0 945 0 928 q 3 964 0 955 q 35 1006 10 991 z "},"]":{"ha":405,"x_min":72,"x_max":339,"o":"m 201 -31 l 141 -31 q 92 -52 113 -31 q 72 -100 72 -72 q 92 -149 72 -129 q 141 -170 113 -170 l 270 -170 q 319 -149 298 -170 q 339 -100 339 -129 l 339 1073 q 319 1122 339 1101 q 270 1142 298 1142 l 141 1142 q 92 1122 113 1142 q 72 1073 72 1101 q 92 1024 72 1044 q 141 1004 113 1004 l 201 1004 l 201 -31 z "},"^":{"ha":744,"x_min":68,"x_max":671,"o":"m 370 755 l 194 504 q 149 476 178 481 q 136 475 142 475 q 98 487 115 475 q 69 532 74 503 q 68 545 68 538 q 81 583 68 566 l 302 904 q 329 934 313 922 q 368 946 347 946 l 372 946 q 410 934 393 946 q 437 904 427 922 l 659 583 q 671 545 671 566 q 670 532 671 538 q 642 487 665 503 q 604 475 624 475 q 590 476 597 475 q 545 504 562 481 l 370 755 z "},"_":{"ha":677,"x_min":-68,"x_max":742,"o":"m -68 -134 q -47 -85 -68 -106 q 1 -65 -27 -65 l 673 -65 q 722 -85 701 -65 q 742 -134 742 -106 q 722 -183 742 -163 q 673 -203 701 -203 l 1 -203 q -47 -183 -27 -203 q -68 -134 -68 -163 z "},"`":{"ha":463,"x_min":68,"x_max":389,"o":"m 103 813 q 71 855 78 827 q 68 874 68 865 q 77 907 68 891 q 119 940 92 932 q 138 942 129 942 q 172 932 155 942 l 354 827 q 387 786 379 813 q 389 767 389 777 q 380 733 389 749 q 338 701 366 709 q 319 699 328 699 q 285 708 301 699 l 103 813 z "},"a":{"ha":815,"x_min":68,"x_max":745,"o":"m 549 481 q 406 540 490 540 q 264 481 323 540 q 205 339 205 422 q 264 197 205 256 q 406 138 323 138 q 549 197 490 138 q 606 315 599 247 l 606 340 q 607 353 606 347 q 549 481 603 427 m 745 66 q 724 14 745 27 q 675 0 704 0 q 627 14 647 0 q 606 65 606 27 q 406 0 519 0 q 167 99 266 0 q 68 338 68 198 q 167 578 68 479 q 406 677 266 677 q 646 578 547 677 q 745 342 743 480 l 745 66 z "},"b":{"ha":815,"x_min":68,"x_max":745,"o":"m 205 324 q 264 196 210 250 q 406 137 323 137 q 548 196 490 137 q 607 338 607 254 q 548 480 607 421 q 406 539 490 539 q 264 480 323 539 q 206 362 214 430 l 206 336 q 205 324 206 330 m 68 811 q 88 860 68 840 q 137 880 109 880 q 186 860 165 880 q 206 811 206 840 l 206 612 q 406 677 293 677 q 646 578 547 677 q 745 338 745 479 q 646 99 745 198 q 406 0 547 0 q 167 99 266 0 q 68 335 69 197 l 68 811 z "},"c":{"ha":744,"x_min":68,"x_max":667,"o":"m 644 578 q 645 577 644 577 q 665 529 665 557 q 645 481 665 501 q 597 461 625 461 q 549 481 568 461 l 548 481 q 406 540 490 540 q 264 481 323 540 q 205 339 205 422 q 264 197 205 256 q 406 138 323 138 q 548 196 489 138 q 549 197 549 197 q 597 217 569 217 q 646 197 626 217 q 667 149 667 177 q 646 100 667 120 q 645 98 646 99 q 406 0 547 0 q 167 99 266 0 q 68 338 68 198 q 167 578 68 479 q 406 677 266 677 q 645 578 547 677 l 644 578 z "},"d":{"ha":815,"x_min":68,"x_max":745,"o":"m 607 324 q 606 336 606 330 l 606 362 q 549 480 599 430 q 406 539 490 539 q 264 480 323 539 q 205 338 205 421 q 264 196 205 254 q 406 137 323 137 q 549 196 490 137 q 607 324 603 250 m 745 335 q 646 99 743 197 q 406 0 547 0 q 167 99 266 0 q 68 338 68 198 q 167 578 68 479 q 406 677 266 677 q 606 612 519 677 l 606 811 q 627 860 606 840 q 675 880 647 880 q 724 860 704 880 q 745 811 745 840 l 745 335 z "},"e":{"ha":744,"x_min":68,"x_max":667,"o":"m 488 523 q 406 540 451 540 q 264 481 323 540 q 205 339 205 422 q 264 197 205 256 q 406 138 323 138 q 548 196 489 138 q 549 197 549 197 q 597 217 569 217 q 646 197 626 217 q 667 149 667 177 q 646 100 667 120 q 645 98 646 99 q 406 0 547 0 q 167 99 266 0 q 68 338 68 198 q 167 578 68 479 q 406 677 266 677 q 645 578 547 677 l 644 578 q 645 577 644 577 q 665 529 665 557 q 645 481 665 501 l 451 289 q 402 269 431 269 q 353 289 373 269 q 333 338 333 309 q 353 387 333 367 l 488 523 z "},"f":{"ha":543,"x_min":56,"x_max":486,"o":"m 203 680 l 203 780 q 253 900 203 850 q 373 949 302 949 q 421 930 401 949 q 441 882 441 910 q 421 834 441 854 q 373 814 401 814 q 349 804 359 814 q 339 780 339 793 l 339 680 l 417 680 q 466 659 446 680 q 486 610 486 639 q 466 562 486 582 q 417 541 446 541 l 342 541 l 342 69 q 321 20 342 41 q 273 0 301 0 q 224 20 244 0 q 203 69 203 41 l 203 541 l 125 541 q 77 562 97 541 q 56 610 56 582 q 77 659 56 639 q 125 680 97 680 l 203 680 z "},"g":{"ha":815,"x_min":68,"x_max":745,"o":"m 406 540 q 264 481 323 540 q 205 339 205 422 q 264 197 205 256 q 406 138 323 138 q 548 197 490 138 q 607 339 607 256 q 548 481 607 422 q 406 540 490 540 m 607 65 q 406 0 520 0 q 167 99 266 0 q 68 338 68 198 q 167 578 68 479 q 406 677 266 677 q 646 578 547 677 q 745 339 745 479 l 745 339 l 745 69 q 745 58 745 64 q 646 -172 741 -77 q 406 -271 547 -271 l 404 -271 q 355 -251 375 -271 q 334 -202 334 -231 q 355 -153 334 -174 q 404 -133 375 -133 q 413 -134 408 -133 q 549 -75 492 -131 q 607 65 606 -16 z "},"h":{"ha":815,"x_min":68,"x_max":747,"o":"m 68 808 q 88 857 68 837 q 137 878 109 878 q 186 857 165 878 q 206 808 206 837 l 206 612 q 402 678 288 671 l 413 678 q 648 578 556 670 q 747 342 746 480 l 747 66 q 727 17 747 34 q 678 0 707 0 q 629 17 650 0 q 609 65 609 34 l 609 340 q 610 353 609 347 q 551 481 606 427 q 409 540 492 540 l 406 540 q 264 481 323 540 q 206 361 213 431 l 206 65 q 186 17 206 34 q 137 0 165 0 q 88 17 109 0 q 68 66 68 34 l 68 808 z "},"i":{"ha":272,"x_min":68,"x_max":206,"o":"m 137 745 q 88 765 109 745 q 68 814 68 785 q 88 863 68 842 q 137 883 109 883 q 186 863 165 883 q 206 814 206 842 q 186 765 206 785 q 137 745 165 745 m 137 0 q 88 20 109 0 q 68 69 68 41 l 68 612 q 88 661 68 640 q 137 681 109 681 q 186 661 165 681 q 206 612 206 640 l 206 69 q 186 20 206 41 q 137 0 165 0 z "},"j":{"ha":272,"x_min":-205,"x_max":206,"o":"m 137 745 q 88 765 109 745 q 68 814 68 785 q 88 863 68 842 q 137 883 109 883 q 186 863 165 883 q 206 814 206 842 q 186 765 206 785 q 137 745 165 745 m -126 -134 q 9 -75 -47 -131 q 68 68 68 -16 l 68 612 q 88 661 68 640 q 137 681 109 681 q 186 661 165 681 q 206 612 206 640 l 206 69 q 205 58 206 64 q 106 -172 202 -77 q -133 -271 7 -271 l -136 -271 q -184 -251 -164 -271 q -205 -202 -205 -231 q -184 -153 -205 -174 q -136 -133 -164 -133 q -126 -134 -131 -133 z "},"k":{"ha":677,"x_min":68,"x_max":610,"o":"m 206 249 l 206 69 q 186 20 206 41 q 137 0 165 0 q 88 20 109 0 q 68 69 68 41 l 68 808 q 88 857 68 837 q 137 878 109 878 q 186 857 165 878 q 206 808 206 837 l 206 429 l 500 663 q 543 678 518 678 q 591 658 571 678 q 610 610 610 638 q 591 562 610 582 q 578 552 585 556 l 313 340 l 587 121 l 586 120 q 591 116 589 118 q 610 68 610 96 q 591 20 610 39 q 543 0 571 0 q 501 14 519 0 l 500 14 l 206 249 z "},"l":{"ha":272,"x_min":68,"x_max":206,"o":"m 137 878 q 186 857 165 878 q 206 808 206 837 l 206 69 q 186 20 206 41 q 137 0 165 0 q 88 20 109 0 q 68 69 68 41 l 68 808 q 88 857 68 837 q 137 878 109 878 z "},"m":{"ha":1358,"x_min":68,"x_max":1290,"o":"m 678 0 q 629 20 650 0 q 609 79 609 41 l 609 340 q 610 353 609 347 q 551 481 606 427 q 409 540 492 540 l 406 540 q 264 481 323 540 q 205 353 210 427 q 206 340 206 347 l 206 79 q 186 20 206 41 q 137 0 165 0 q 88 20 109 0 q 68 80 68 41 l 68 342 q 167 578 69 480 q 402 678 259 670 l 413 678 q 648 578 556 670 q 679 543 665 561 q 709 578 692 561 q 945 678 802 670 l 956 678 q 1191 578 1099 670 q 1290 342 1289 480 l 1290 80 q 1270 20 1290 41 q 1221 0 1249 0 q 1172 20 1192 0 q 1152 79 1152 41 l 1152 340 q 1152 353 1152 347 q 1094 481 1148 427 q 951 540 1035 540 l 949 540 q 806 481 865 540 q 748 353 752 427 q 749 340 749 347 l 749 79 q 728 20 749 41 q 680 0 708 0 l 678 0 z "},"n":{"ha":815,"x_min":68,"x_max":747,"o":"m 413 678 q 648 578 556 670 q 747 342 746 480 l 747 80 q 727 20 747 41 q 678 0 707 0 q 629 20 650 0 q 609 79 609 41 l 609 340 q 610 353 609 347 q 551 481 606 427 q 409 540 492 540 l 406 540 q 264 481 323 540 q 205 353 210 427 q 206 340 206 347 l 206 79 q 186 20 206 41 q 137 0 165 0 q 88 20 109 0 q 68 80 68 41 l 68 342 q 167 578 69 480 q 402 678 259 670 l 413 678 z "},"o":{"ha":815,"x_min":68,"x_max":745,"o":"m 406 677 q 646 578 547 677 q 745 338 745 479 q 646 99 745 198 q 406 0 547 0 q 167 99 266 0 q 68 338 68 198 q 167 578 68 479 q 406 677 266 677 m 406 540 q 264 481 323 540 q 205 339 205 422 q 264 197 205 256 q 406 138 323 138 q 548 197 490 138 q 607 339 607 256 q 548 481 607 422 q 406 540 490 540 z "},"p":{"ha":815,"x_min":68,"x_max":745,"o":"m 205 353 q 206 340 206 347 l 206 315 q 264 197 214 247 q 406 138 323 138 q 548 197 490 138 q 607 339 607 256 q 548 481 607 422 q 406 540 490 540 q 264 481 323 540 q 205 353 210 427 m 68 342 q 167 578 69 480 q 406 677 266 677 q 646 578 547 677 q 745 338 745 479 q 646 99 745 198 q 406 0 547 0 q 206 65 293 0 l 206 -202 q 186 -251 206 -231 q 137 -271 165 -271 q 88 -251 109 -271 q 68 -202 68 -231 l 68 342 z "},"q":{"ha":815,"x_min":68,"x_max":1017,"o":"m 606 65 q 406 0 520 0 q 167 99 266 0 q 68 338 68 198 q 167 578 68 479 q 406 677 266 677 q 646 578 547 677 q 745 339 745 479 l 745 68 q 803 -75 745 -16 q 939 -134 860 -131 q 948 -133 943 -133 q 997 -153 977 -133 q 1017 -202 1017 -174 q 997 -251 1017 -231 q 948 -271 977 -271 l 945 -271 q 706 -172 805 -271 q 607 58 610 -77 q 606 65 606 62 m 606 321 l 606 339 l 607 339 q 548 481 607 422 q 406 540 490 540 q 264 481 323 540 q 205 339 205 422 q 264 197 205 256 q 406 138 323 138 q 549 197 490 138 q 606 321 601 250 z "},"r":{"ha":543,"x_min":68,"x_max":476,"o":"m 407 678 q 456 658 435 678 q 476 609 476 637 q 456 560 476 581 q 407 540 435 540 l 406 540 q 264 481 323 540 q 205 353 210 427 q 206 340 206 347 l 206 79 q 186 20 206 41 q 137 0 165 0 q 88 20 109 0 q 68 80 68 41 l 68 342 q 167 578 69 480 q 407 678 260 671 z "},"s":{"ha":610,"x_min":68,"x_max":543,"o":"m 305 678 q 353 659 334 678 q 373 610 373 639 q 353 563 373 583 q 305 543 334 543 q 281 533 291 543 q 271 509 271 523 q 281 485 271 494 q 305 475 291 475 q 473 405 404 475 q 543 237 543 336 q 473 70 543 139 q 305 0 404 0 q 137 70 207 0 q 68 237 68 139 q 88 286 68 266 q 136 305 108 305 q 184 286 164 305 q 203 237 203 266 q 233 165 203 195 q 305 136 263 136 q 377 165 347 136 q 407 237 407 195 q 377 309 407 279 q 305 339 347 339 q 185 389 235 339 q 136 509 136 439 q 185 629 136 579 q 305 678 235 678 z "},"t":{"ha":543,"x_min":56,"x_max":486,"o":"m 203 680 l 203 808 q 224 857 203 837 q 273 878 244 878 q 321 857 301 878 q 342 808 342 837 l 342 680 l 417 680 q 466 659 446 680 q 486 610 486 639 q 466 562 486 582 q 417 541 446 541 l 342 541 l 342 69 q 321 20 342 41 q 273 0 301 0 q 224 20 244 0 q 203 69 203 41 l 203 541 l 125 541 q 77 562 97 541 q 56 610 56 582 q 77 659 56 639 q 125 680 97 680 l 203 680 z "},"u":{"ha":815,"x_min":68,"x_max":747,"o":"m 402 0 q 167 100 259 8 q 68 336 69 198 l 68 598 q 88 658 68 637 q 137 678 109 678 q 186 658 165 678 q 206 600 206 637 l 206 338 q 205 326 206 332 q 264 197 210 251 q 406 138 323 138 l 409 138 q 551 197 492 138 q 610 326 606 251 q 609 338 609 332 l 609 600 q 629 658 609 637 q 678 678 650 678 q 727 658 707 678 q 747 598 747 637 l 747 336 q 648 100 746 198 q 413 0 556 8 l 402 0 z "},"v":{"ha":815,"x_min":68,"x_max":746,"o":"m 471 44 q 455 20 466 31 q 407 0 435 0 q 359 20 379 0 q 344 43 349 31 l 80 572 q 68 610 68 589 q 88 658 68 638 q 136 678 108 678 q 184 659 164 678 q 195 644 191 652 l 195 644 l 407 220 l 618 644 l 619 644 q 631 659 624 652 q 678 678 650 678 q 726 658 707 678 q 746 610 746 638 q 733 571 746 588 l 471 44 z "},"w":{"ha":1358,"x_min":68,"x_max":1289,"o":"m 678 678 q 726 659 707 678 q 737 644 733 652 l 738 644 l 949 220 l 1161 644 l 1162 644 q 1173 659 1166 652 q 1221 678 1193 678 q 1269 658 1249 678 q 1289 610 1289 638 q 1276 571 1289 588 l 1013 44 q 998 20 1008 31 q 949 0 978 0 q 902 20 922 0 q 886 43 891 31 l 678 460 l 471 44 q 455 20 466 31 q 407 0 435 0 q 359 20 379 0 q 344 43 349 31 l 80 572 q 68 610 68 589 q 88 658 68 638 q 136 678 108 678 q 184 659 164 678 q 195 644 191 652 l 195 644 l 407 220 l 618 644 l 619 644 q 631 659 624 652 q 678 678 650 678 z "},"x":{"ha":815,"x_min":68,"x_max":746,"o":"m 311 339 l 87 562 q 68 610 68 582 q 88 658 68 638 q 136 678 108 678 q 184 659 164 678 l 408 435 l 630 658 l 631 659 q 678 678 650 678 q 726 658 707 678 q 746 610 746 638 q 726 562 746 582 q 720 557 724 559 l 503 339 l 726 116 q 746 68 746 96 q 726 20 746 39 q 678 0 707 0 q 630 20 650 0 l 407 243 l 185 20 q 136 0 166 0 q 88 20 108 0 q 68 68 68 39 q 88 116 68 96 l 311 339 z "},"y":{"ha":815,"x_min":68,"x_max":746,"o":"m 76 578 q 68 610 68 593 q 87 659 68 639 q 136 678 107 678 q 184 659 163 678 q 199 633 195 648 l 407 219 l 614 633 q 630 659 618 647 q 678 678 650 678 q 726 659 706 678 q 746 610 746 639 q 739 581 746 594 l 338 -226 q 319 -251 331 -239 q 271 -271 299 -271 q 223 -251 243 -271 q 203 -203 203 -231 q 212 -164 203 -182 l 331 68 l 76 578 z "},"z":{"ha":815,"x_min":68,"x_max":746,"o":"m 299 136 l 678 136 q 726 116 706 136 q 746 68 746 96 q 726 20 746 40 q 678 0 706 0 l 136 0 q 87 20 107 0 q 68 68 68 40 q 87 116 68 96 l 515 543 l 170 543 q 121 563 141 543 q 102 610 102 583 q 121 659 102 639 q 170 678 141 678 l 678 678 q 726 659 706 678 q 746 610 746 639 q 726 563 746 583 l 726 562 l 299 136 z "},"{":{"ha":543,"x_min":68,"x_max":475,"o":"m 407 -136 q 263 -76 322 -136 q 203 68 203 -16 l 203 339 q 183 387 203 368 q 136 407 163 407 q 87 427 107 407 q 68 475 68 447 q 87 523 68 503 q 136 543 107 543 q 183 563 163 543 q 203 610 203 583 l 203 882 q 263 1026 203 966 q 407 1085 322 1085 q 455 1065 435 1085 q 475 1017 475 1046 q 455 969 475 989 q 407 949 435 949 q 359 930 378 949 q 339 882 339 910 l 339 610 q 288 475 339 532 q 339 339 339 418 l 339 68 q 359 20 339 40 q 407 0 378 0 q 455 -20 435 0 q 475 -68 475 -39 q 455 -116 475 -96 q 407 -136 435 -136 z "},"|":{"ha":272,"x_min":62,"x_max":201,"o":"m 132 1088 q 180 1067 160 1088 q 201 1019 201 1047 l 201 -60 q 180 -109 201 -88 q 132 -129 160 -129 q 83 -109 103 -129 q 62 -60 62 -88 l 62 1019 q 83 1067 62 1047 q 132 1088 103 1088 z "},"}":{"ha":543,"x_min":68,"x_max":475,"o":"m 136 -136 q 280 -76 220 -136 q 339 68 339 -16 l 339 339 q 359 387 339 368 q 407 407 379 407 q 455 427 435 407 q 475 475 475 447 q 455 523 475 503 q 407 543 435 543 q 359 563 379 543 q 339 610 339 583 l 339 882 q 280 1026 339 966 q 136 1085 220 1085 q 88 1065 108 1085 q 68 1017 68 1046 q 88 969 68 989 q 136 949 108 949 q 184 930 164 949 q 203 882 203 910 l 203 610 q 255 475 203 532 q 203 339 203 418 l 203 68 q 184 20 203 40 q 136 0 164 0 q 87 -20 107 0 q 68 -68 68 -39 q 87 -116 68 -96 q 136 -136 107 -136 z "},"~":{"ha":663,"x_min":51,"x_max":602,"o":"m 475 509 q 493 554 475 535 q 538 572 512 572 q 583 554 565 572 q 602 509 602 535 q 552 389 602 438 q 432 339 503 339 q 312 389 362 339 q 263 509 263 438 q 250 538 263 526 q 220 551 238 551 q 190 538 203 551 q 178 509 178 526 q 159 464 178 482 q 114 445 141 445 q 70 464 88 445 q 51 509 51 482 q 100 629 51 579 q 220 678 150 678 q 340 629 291 678 q 390 509 390 579 q 402 479 390 492 q 432 466 415 466 q 462 479 450 466 q 475 509 475 492 z "},"¡":{"ha":272,"x_min":65,"x_max":203,"o":"m 134 556 q 85 576 106 556 q 65 625 65 597 q 85 674 65 654 q 134 694 106 694 q 183 674 163 694 q 203 625 203 654 q 183 576 203 597 q 134 556 163 556 m 134 -285 q 85 -264 106 -285 q 65 -216 65 -244 l 65 354 q 85 403 65 382 q 134 423 106 423 q 183 403 163 423 q 203 354 203 382 l 203 -216 q 183 -264 203 -244 q 134 -285 163 -285 z "},"¢":{"ha":815,"x_min":68,"x_max":746,"o":"m 643 603 q 670 578 657 591 l 669 578 q 670 577 669 577 q 690 529 690 557 q 670 481 690 501 q 622 461 650 461 q 574 481 593 461 l 573 481 l 378 144 q 431 138 404 138 q 573 196 514 138 q 574 197 574 197 q 623 217 594 217 q 671 197 651 217 q 692 149 692 177 q 671 100 692 120 q 670 98 671 99 q 431 0 572 0 q 308 22 365 0 l 197 -169 q 155 -201 183 -193 q 136 -203 146 -203 q 102 -194 119 -203 q 71 -152 78 -180 q 68 -133 68 -142 q 77 -100 68 -116 l 192 99 q 93 338 93 198 q 192 578 93 479 q 431 677 291 677 q 519 666 477 677 l 616 834 q 659 867 631 859 q 677 869 668 869 q 711 860 694 869 q 743 818 736 845 q 746 799 746 808 q 736 765 746 781 l 643 603 m 446 539 q 431 540 439 540 q 289 481 348 540 q 230 339 230 422 q 265 225 230 275 l 446 539 z "},"£":{"ha":697,"x_min":68,"x_max":646,"o":"m 321 403 q 323 361 323 383 q 293 207 321 283 q 429 144 371 199 q 477 133 451 133 q 549 162 519 133 l 551 160 q 578 165 564 165 q 626 145 606 165 q 646 98 646 125 q 641 71 646 83 l 645 66 q 626 50 636 58 q 612 38 619 43 q 477 -3 553 -3 q 314 62 382 -3 q 268 73 293 73 q 205 52 233 73 q 198 41 202 46 q 184 20 193 30 q 136 0 163 0 q 87 20 107 0 q 68 68 68 40 q 81 109 68 92 l 79 111 q 100 137 91 124 l 100 138 q 106 144 103 142 q 188 364 185 253 q 185 403 187 385 l 137 403 q 88 423 109 403 q 68 472 68 444 q 88 521 68 500 q 121 539 102 535 q 79 684 79 603 q 159 876 79 797 q 351 956 238 956 q 543 876 463 956 q 563 854 553 865 l 559 851 q 576 807 576 833 q 556 759 576 779 q 508 739 536 739 q 460 760 479 739 q 444 783 449 770 q 351 820 405 820 q 255 780 294 820 q 215 684 215 741 q 269 568 215 635 q 286 541 278 556 l 408 541 q 457 521 437 541 q 477 472 477 500 q 457 423 477 444 q 408 403 437 403 l 321 403 z "},"¤":{"ha":677,"x_min":68,"x_max":610,"o":"m 339 610 q 243 571 283 610 q 203 475 203 531 q 243 379 203 418 q 339 339 283 339 q 435 379 395 339 q 475 475 475 418 q 435 571 475 531 q 339 610 395 610 m 477 709 l 495 727 q 543 746 515 746 q 591 726 571 746 q 610 678 610 706 q 591 630 610 650 l 574 613 q 610 475 610 551 q 573 337 610 398 l 591 319 q 610 271 610 299 q 591 223 610 243 q 543 203 571 203 q 495 223 515 203 l 477 241 q 339 203 416 203 q 201 241 262 203 l 184 223 q 136 203 164 203 q 88 223 108 203 q 68 271 68 243 q 88 319 68 299 l 105 336 q 68 475 68 398 q 105 613 68 551 l 88 630 q 68 678 68 650 q 88 726 68 706 q 136 746 108 746 q 184 727 163 746 l 201 709 q 339 746 263 746 q 477 709 416 746 z "},"¥":{"ha":932,"x_min":68,"x_max":746,"o":"m 339 161 l 205 161 q 156 182 176 161 q 136 231 136 202 q 156 279 136 259 q 205 300 176 300 l 339 300 l 339 438 l 205 438 q 156 458 176 438 q 136 507 136 479 q 156 556 136 536 q 205 576 176 576 l 278 576 l 79 866 q 68 905 68 883 q 88 952 68 932 q 136 972 108 972 q 184 953 164 972 q 197 935 192 945 l 407 628 l 622 943 q 631 953 626 948 q 678 972 650 972 q 726 952 707 972 q 746 905 746 932 q 730 861 746 879 l 536 576 l 605 576 q 654 556 633 576 q 674 507 674 536 q 654 458 674 479 q 605 438 633 438 l 475 438 l 475 300 l 605 300 q 654 279 633 300 q 674 231 674 259 q 654 182 674 202 q 605 161 633 161 l 475 161 l 475 68 q 455 20 475 39 q 407 0 435 0 q 359 20 379 0 q 339 68 339 39 l 339 161 z "},"¦":{"ha":272,"x_min":68,"x_max":206,"o":"m 137 -271 q 88 -251 109 -271 q 68 -202 68 -231 l 68 205 q 88 254 68 233 q 137 274 109 274 q 186 254 165 274 q 206 205 206 233 l 206 -202 q 186 -251 206 -231 q 137 -271 165 -271 m 137 427 q 88 448 109 427 q 68 496 68 468 l 68 903 q 88 952 68 932 q 137 972 109 972 q 186 952 165 972 q 206 903 206 932 l 206 496 q 186 448 206 468 q 137 427 165 427 z "},"§":{"ha":671,"x_min":68,"x_max":610,"o":"m 185 573 q 147 606 172 581 q 68 798 68 686 q 147 990 68 910 q 339 1069 227 1069 q 531 990 452 1069 q 610 798 610 910 q 591 750 610 770 q 543 730 571 730 q 495 750 515 730 q 475 798 475 770 q 435 894 475 854 q 339 934 395 934 q 243 894 283 934 q 203 798 203 854 q 243 702 203 742 q 339 663 283 663 q 465 610 413 663 q 516 485 516 558 q 493 395 516 425 q 531 361 506 387 q 610 170 610 282 q 531 -22 610 58 q 339 -102 452 -102 q 147 -22 227 -102 q 68 170 68 58 q 87 217 68 197 q 136 237 107 237 q 183 217 163 237 q 203 170 203 197 q 243 74 203 114 q 339 34 283 34 q 435 74 395 34 q 475 170 475 114 q 435 266 475 226 q 339 305 395 305 q 214 357 265 305 q 162 483 162 410 q 185 573 162 543 m 339 526 q 303 511 318 526 q 288 475 288 496 q 303 439 288 454 q 339 424 318 424 q 375 439 360 424 q 390 475 390 454 q 375 511 390 496 q 339 526 360 526 z "},"¨":{"ha":477,"x_min":68,"x_max":407,"o":"m 136 882 q 183 862 163 882 q 203 814 203 842 q 183 766 203 786 q 136 746 163 746 q 88 766 108 746 q 68 814 68 786 q 88 862 68 842 q 136 882 108 882 m 339 882 q 387 862 367 882 q 407 814 407 842 q 387 766 407 786 q 339 746 367 746 q 291 766 311 746 q 271 814 271 786 q 291 862 271 842 q 339 882 311 882 z "},"©":{"ha":1235,"x_min":68,"x_max":1176,"o":"m 832 702 q 833 701 832 701 q 850 658 850 684 q 832 615 850 633 q 789 597 814 597 q 746 615 764 597 l 745 615 q 618 667 693 667 q 490 615 543 667 q 437 487 437 562 q 490 359 437 412 q 618 306 543 306 q 745 358 692 306 q 747 359 746 359 q 790 377 764 377 q 834 359 816 377 q 852 315 852 341 q 834 271 852 290 q 833 270 833 271 q 618 182 745 182 q 402 271 492 182 q 313 486 313 360 q 402 702 313 612 q 618 791 492 791 q 833 703 745 791 l 832 702 m 622 902 q 328 780 449 902 q 206 486 206 658 q 328 193 206 315 q 622 71 449 71 q 916 193 793 71 q 1038 486 1038 315 q 916 780 1038 658 q 622 902 793 902 m 1014 878 q 1095 797 1014 878 q 1176 486 1176 715 q 1014 95 1176 257 q 622 -68 851 -68 q 230 95 393 -68 q 68 486 68 257 q 230 878 68 715 q 622 1040 393 1040 q 1014 878 851 1040 z "},"ª":{"ha":585,"x_min":68,"x_max":515,"o":"m 361 831 q 291 857 332 857 q 221 831 250 857 q 193 770 193 806 q 221 708 193 734 q 291 683 250 683 q 361 708 332 683 q 389 759 386 730 l 389 770 q 390 776 389 773 q 361 831 388 808 m 88 457 q 98 467 88 457 q 137 477 109 477 l 439 477 q 488 457 468 477 q 509 408 509 437 q 488 359 509 380 q 439 339 468 339 l 137 339 q 88 359 109 339 q 68 408 68 380 q 88 457 68 437 m 515 617 q 495 584 511 597 q 447 566 475 566 q 399 584 419 566 q 394 589 396 586 q 291 566 348 566 q 133 626 199 566 q 68 769 68 685 q 133 913 68 854 q 291 972 199 972 q 449 913 384 972 q 515 771 513 854 l 515 617 z "},"«":{"ha":644,"x_min":68,"x_max":578,"o":"z "},"¬":{"ha":677,"x_min":68,"x_max":613,"o":"m 475 538 l 137 538 q 88 559 109 538 q 68 608 68 579 q 88 656 68 636 q 137 677 109 677 l 544 681 q 593 661 572 681 q 613 612 613 640 l 613 340 q 593 292 613 312 q 544 271 572 271 q 495 292 515 271 q 475 340 475 312 l 475 538 z "},"®":{"ha":1244,"x_min":68,"x_max":1176,"o":"m 1176 486 q 1014 95 1176 257 q 622 -68 851 -68 q 230 95 393 -68 q 68 486 68 257 q 230 878 68 715 q 622 1040 393 1040 q 1014 878 851 1040 q 1176 486 1176 715 m 622 902 q 328 780 449 902 q 206 486 206 658 q 328 193 206 315 q 622 71 449 71 q 916 193 793 71 q 1038 486 1038 315 q 916 780 1038 658 q 622 902 793 902 m 627 543 q 664 557 649 543 q 678 593 678 572 q 664 629 678 614 q 627 644 649 644 l 543 644 l 543 543 l 627 543 m 838 273 q 848 237 848 257 q 828 190 848 210 q 780 170 808 170 q 732 190 752 170 q 715 216 720 201 l 622 407 l 543 407 l 543 237 q 523 190 543 210 q 475 170 503 170 q 427 190 447 170 q 407 237 407 210 l 407 712 q 427 760 407 741 q 475 780 447 780 l 627 780 q 759 725 705 780 q 814 593 814 671 q 760 462 814 516 q 750 453 755 457 l 838 273 z "},"¯":{"ha":543,"x_min":68,"x_max":477,"o":"m 68 898 q 88 947 68 926 q 137 967 109 967 l 408 967 q 457 947 437 967 q 477 898 477 926 q 457 849 477 869 q 408 829 437 829 l 137 829 q 88 849 109 829 q 68 898 68 869 z "},"°":{"ha":543,"x_min":68,"x_max":475,"o":"m 271 972 q 415 913 355 972 q 475 769 475 854 q 415 625 475 685 q 271 566 355 566 q 127 625 187 566 q 68 769 68 685 q 127 913 68 854 q 271 972 187 972 m 271 854 q 211 829 236 854 q 186 769 186 804 q 211 709 186 734 q 271 684 236 684 q 331 709 307 684 q 356 769 356 734 q 331 829 356 804 q 271 854 307 854 z "},"±":{"ha":677,"x_min":130,"x_max":543,"o":"m 269 403 l 203 403 q 154 423 174 403 q 134 472 134 444 q 154 521 134 500 q 203 541 174 541 l 269 541 l 269 608 q 289 656 269 636 q 338 677 309 677 q 387 656 367 677 q 408 608 408 636 l 408 541 l 474 541 q 523 521 503 541 q 543 472 543 500 q 523 423 543 444 q 474 403 503 403 l 408 403 l 408 336 q 387 288 408 308 q 338 267 367 267 q 289 288 309 267 q 269 336 269 308 l 269 403 m 199 -7 q 150 14 170 -7 q 130 62 130 34 q 150 111 130 91 q 199 132 170 132 l 470 132 q 519 111 498 132 q 539 62 539 91 q 519 14 539 34 q 470 -7 498 -7 l 199 -7 z "},"²":{"ha":519,"x_min":68,"x_max":441,"o":"m 258 543 l 373 543 q 421 523 401 543 q 441 475 441 503 q 421 427 441 447 q 373 407 401 407 l 136 407 q 87 427 107 407 q 68 475 68 447 q 119 604 68 552 q 220 681 171 655 q 287 724 269 706 q 305 763 305 742 q 290 799 305 784 q 254 814 275 814 q 218 799 233 814 q 203 763 203 784 q 184 715 203 734 q 136 695 164 695 q 88 715 108 695 q 68 763 68 734 q 122 895 68 840 q 254 949 177 949 q 386 895 332 949 q 441 763 441 840 q 389 634 441 686 q 258 543 338 583 z "},"³":{"ha":515,"x_min":68,"x_max":438,"o":"m 86 472 q 68 518 68 490 q 87 566 68 546 q 136 586 107 586 q 184 566 163 586 q 188 562 186 563 q 186 562 187 562 q 235 543 206 543 q 282 563 262 543 q 302 610 302 583 q 282 659 302 639 q 235 678 262 678 q 186 698 206 678 q 167 746 167 718 q 184 791 167 774 q 136 811 155 791 q 116 859 116 831 q 136 907 116 887 q 138 909 137 908 l 139 910 q 235 949 178 949 q 331 910 291 949 q 370 814 370 870 q 368 768 370 772 q 366 770 366 770 q 365 769 365 770 q 378 754 365 768 q 438 610 438 694 q 378 467 438 526 q 235 407 319 407 q 95 463 151 407 q 90 468 94 463 q 86 472 87 471 z "},"´":{"ha":467,"x_min":68,"x_max":389,"o":"m 172 708 q 138 699 156 699 q 119 701 129 699 q 77 733 92 709 q 68 767 68 749 q 71 786 68 777 q 103 827 78 813 l 285 932 q 319 942 302 942 q 338 940 328 942 q 380 907 365 932 q 389 874 389 891 q 387 855 389 865 q 354 813 379 827 l 172 708 z "},"µ":{"ha":815,"x_min":68,"x_max":749,"o":"m 610 68 q 413 0 528 7 l 402 0 q 206 66 288 7 l 206 -130 q 186 -179 206 -159 q 137 -199 165 -199 q 88 -179 109 -199 q 68 -130 68 -159 l 68 612 q 88 661 68 644 q 137 678 109 678 q 186 661 165 678 q 206 613 206 644 l 206 317 q 264 197 213 248 q 406 138 323 138 l 409 138 q 551 197 492 138 q 610 326 606 251 q 609 338 609 332 l 609 613 q 629 661 609 644 q 641 669 635 666 q 680 681 658 681 q 728 661 708 681 q 749 612 749 640 l 749 69 q 728 20 749 41 q 680 0 708 0 q 631 20 651 0 q 610 68 611 40 z "},"¶":{"ha":820,"x_min":68,"x_max":766,"o":"m 766 69 q 746 20 766 41 q 697 0 726 0 q 648 20 669 0 q 628 69 628 41 l 628 837 l 563 837 l 563 69 q 543 20 563 41 q 494 0 522 0 q 445 20 465 0 q 425 69 425 41 l 425 407 l 351 407 q 151 490 234 407 q 68 690 68 573 q 151 890 68 808 q 351 973 234 973 l 494 972 q 508 971 501 972 l 683 971 q 697 972 690 972 q 746 952 726 972 q 766 903 766 932 l 766 69 m 351 837 q 247 794 290 837 q 204 690 204 751 q 247 586 204 629 q 351 543 290 543 l 425 543 l 425 837 l 351 837 z "},"·":{"ha":345,"x_min":68,"x_max":185,"o":"m 127 545 q 168 528 151 545 q 185 486 185 510 q 168 445 185 462 q 127 427 151 427 q 85 445 102 427 q 68 486 68 462 q 85 528 68 510 q 127 545 102 545 z "},"¸":{"ha":300,"x_min":68,"x_max":245,"o":"m 172 -28 q 209 -54 192 -37 q 245 -144 245 -92 q 209 -234 245 -197 q 119 -271 172 -271 q 82 -256 97 -271 q 68 -220 68 -241 q 82 -184 68 -199 q 119 -169 97 -169 q 137 -162 130 -169 q 144 -144 144 -155 q 137 -125 144 -133 q 124 -119 132 -120 l 120 -119 q 100 -115 109 -119 q 83 -103 90 -111 q 68 -67 68 -89 q 68 -58 68 -63 l 68 -11 q 83 26 68 11 q 120 41 98 41 q 157 26 142 41 q 172 -11 172 11 l 172 -28 z "},"¹":{"ha":348,"x_min":68,"x_max":273,"o":"m 157 932 q 204 949 178 949 q 253 929 233 949 q 273 881 273 909 l 273 477 q 253 429 273 449 q 204 409 233 409 q 156 429 176 409 q 136 477 136 449 l 136 748 q 88 768 108 748 q 68 817 68 788 q 88 865 68 845 l 157 932 z "},"º":{"ha":585,"x_min":68,"x_max":515,"o":"m 68 408 q 88 457 68 437 q 137 477 109 477 l 440 477 q 488 457 468 477 q 509 408 509 437 q 488 359 509 380 q 440 339 468 339 l 137 339 q 88 359 109 339 q 68 408 68 380 m 291 856 q 221 830 250 856 q 192 769 192 805 q 221 708 192 733 q 291 682 250 682 q 361 708 332 682 q 390 769 390 733 q 361 830 390 805 q 291 856 332 856 m 449 912 q 482 883 449 912 q 515 768 515 853 q 449 625 515 684 q 291 566 384 566 q 133 625 199 566 q 68 768 68 684 q 133 912 68 853 q 291 972 199 972 q 449 912 384 972 z "},"»":{"ha":644,"x_min":68,"x_max":578,"o":"m 83 635 q 68 678 68 654 q 87 726 68 707 q 136 746 107 746 q 184 726 163 746 q 192 716 189 722 l 193 716 l 328 512 q 339 475 339 496 q 328 437 339 454 l 330 437 l 194 233 l 193 234 q 184 224 189 229 q 136 203 163 203 q 87 223 107 203 q 68 271 68 243 q 79 310 68 293 l 189 475 l 83 635 m 322 635 q 307 678 307 654 q 326 726 307 707 q 374 746 346 746 q 422 726 402 746 q 431 716 427 722 l 431 716 l 567 512 q 578 475 578 496 q 567 437 578 454 l 568 437 l 433 233 l 431 234 q 422 224 427 229 q 374 203 402 203 q 326 223 346 203 q 307 271 307 243 q 318 310 307 293 l 428 475 l 322 635 z "},"¼":{"ha":1087,"x_min":68,"x_max":1017,"o":"m 157 1000 q 204 1017 178 1017 q 253 997 233 1017 q 273 949 273 977 l 273 545 q 253 497 273 517 q 204 477 233 477 q 156 497 176 477 q 136 545 136 517 l 136 816 q 88 836 108 816 q 68 884 68 856 q 88 933 68 913 l 157 1000 m 968 861 q 948 812 968 832 l 186 50 q 137 29 165 29 q 88 50 108 29 q 68 98 68 69 q 88 147 68 127 l 850 909 q 900 930 871 930 q 948 909 928 930 q 968 861 968 890 m 834 455 q 882 475 854 475 q 930 455 910 475 q 949 407 949 435 l 949 203 q 998 183 978 203 q 1017 136 1017 163 q 998 87 1017 107 q 949 68 978 68 l 949 0 q 930 -48 949 -28 q 882 -68 910 -68 q 834 -48 854 -68 q 814 0 814 -28 l 814 68 l 678 68 q 630 87 650 68 q 610 136 610 107 q 624 176 610 159 l 827 448 q 834 455 831 452 z "},"½":{"ha":1135,"x_min":68,"x_max":1051,"o":"m 157 1000 q 204 1017 178 1017 q 253 997 233 1017 q 273 949 273 977 l 273 545 q 253 497 273 517 q 204 477 233 477 q 156 497 176 477 q 136 545 136 517 l 136 816 q 88 836 108 816 q 68 884 68 856 q 88 933 68 913 l 157 1000 m 968 861 q 948 812 968 832 l 186 50 q 137 29 165 29 q 88 50 108 29 q 68 98 68 69 q 88 147 68 127 l 850 909 q 900 930 871 930 q 948 909 928 930 q 968 861 968 890 m 868 68 l 983 68 q 1031 48 1011 68 q 1051 0 1051 28 q 1031 -48 1051 -28 q 983 -68 1011 -68 l 746 -68 q 698 -48 718 -68 q 678 0 678 -28 q 730 129 678 77 q 830 206 781 180 q 898 249 880 231 q 916 288 916 267 q 901 324 916 309 q 865 339 886 339 q 829 324 844 339 q 814 288 814 309 q 794 240 814 260 q 746 220 774 220 q 698 240 718 220 q 678 288 678 260 q 733 420 678 366 q 865 475 787 475 q 997 420 942 475 q 1051 288 1051 366 q 1000 159 1051 211 q 868 68 948 108 z "},"¾":{"ha":1154,"x_min":68,"x_max":1085,"o":"m 86 540 q 68 586 68 557 q 87 634 68 614 q 136 654 107 654 q 184 634 163 654 q 188 629 186 631 q 186 630 187 630 q 235 610 206 610 q 282 630 262 610 q 302 678 302 650 q 282 726 302 707 q 235 746 262 746 q 186 766 206 746 q 167 814 167 786 q 184 859 167 842 q 136 879 155 859 q 116 927 116 899 q 136 975 116 955 q 138 977 137 976 l 139 978 q 235 1017 178 1017 q 331 978 291 1017 q 370 882 370 938 q 368 836 370 840 q 366 838 366 838 q 365 837 365 838 q 378 822 365 836 q 438 678 438 762 q 378 534 438 594 q 235 475 319 475 q 95 530 151 475 q 90 536 94 531 q 86 540 87 538 m 1036 861 q 1016 812 1036 832 l 254 50 q 205 29 233 29 q 156 50 176 29 q 136 98 136 69 q 156 147 136 127 l 918 909 q 968 930 939 930 q 1016 909 996 930 q 1036 861 1036 890 m 902 455 q 949 475 922 475 q 998 455 978 475 q 1017 407 1017 435 l 1017 203 q 1065 183 1046 203 q 1085 136 1085 163 q 1065 87 1085 107 q 1017 68 1046 68 l 1017 0 q 998 -48 1017 -28 q 949 -68 978 -68 q 902 -48 922 -68 q 882 0 882 -28 l 882 68 l 746 68 q 698 87 718 68 q 678 136 678 107 q 692 176 678 159 l 895 448 q 902 455 899 452 z "},"¿":{"ha":696,"x_min":68,"x_max":634,"o":"m 302 576 q 292 587 302 576 q 282 625 282 597 q 302 674 282 654 q 351 694 323 694 q 400 674 380 694 q 420 625 420 654 q 400 576 420 597 q 351 556 380 556 q 302 576 323 556 m 634 5 q 551 -196 634 -113 q 351 -279 469 -279 q 151 -196 234 -279 q 68 5 68 -113 q 151 205 68 122 q 282 279 208 262 l 282 354 q 302 403 282 382 q 351 423 323 423 q 400 403 380 423 q 420 354 420 382 l 420 218 q 400 170 420 190 q 351 149 380 149 q 335 151 342 149 q 247 109 284 146 q 203 5 203 66 q 247 -100 203 -56 q 351 -143 290 -143 q 455 -100 412 -143 q 498 5 498 -56 l 498 5 q 518 53 498 33 q 566 73 538 73 q 614 53 594 73 q 634 5 634 33 l 634 5 z "},"À":{"ha":1087,"x_min":68,"x_max":1017,"o":"m 310 271 l 197 39 q 184 20 193 29 q 136 0 163 0 q 87 20 107 0 q 68 68 68 40 q 78 103 68 87 l 480 932 q 494 952 485 943 q 543 972 514 972 q 591 952 570 972 q 604 935 599 944 l 1006 106 q 1017 68 1017 90 q 997 20 1017 40 q 949 0 977 0 q 901 20 921 0 q 888 39 892 29 l 887 39 l 774 271 l 310 271 m 709 407 l 543 749 l 376 407 l 709 407 m 431 1091 q 399 1133 406 1105 q 396 1152 396 1143 q 406 1185 396 1169 q 448 1218 420 1211 q 466 1220 457 1220 q 500 1211 484 1220 l 682 1105 q 715 1064 707 1091 q 718 1045 718 1055 q 708 1011 718 1027 q 666 979 694 987 q 647 977 656 977 q 613 986 629 977 l 431 1091 z "},"Á":{"ha":1087,"x_min":68,"x_max":1017,"o":"m 310 271 l 197 39 q 184 20 193 29 q 136 0 163 0 q 87 20 107 0 q 68 68 68 40 q 78 103 68 87 l 480 932 q 494 952 485 943 q 543 972 514 972 q 591 952 570 972 q 604 935 599 944 l 1006 106 q 1017 68 1017 90 q 997 20 1017 40 q 949 0 977 0 q 901 20 921 0 q 888 39 892 29 l 887 39 l 774 271 l 310 271 m 709 407 l 543 749 l 376 407 l 709 407 m 479 986 q 445 977 463 977 q 426 979 435 977 q 384 1011 398 987 q 374 1045 374 1027 q 377 1064 374 1055 q 410 1105 385 1091 l 591 1211 q 626 1220 608 1220 q 644 1218 635 1220 q 686 1185 671 1211 q 696 1152 696 1169 q 693 1133 696 1143 q 661 1091 686 1105 l 479 986 z "},"Â":{"ha":1087,"x_min":68,"x_max":1017,"o":"m 310 271 l 197 39 q 184 20 193 29 q 136 0 163 0 q 87 20 107 0 q 68 68 68 40 q 78 103 68 87 l 480 932 q 494 952 485 943 q 543 972 514 972 q 591 952 570 972 q 604 935 599 944 l 1006 106 q 1017 68 1017 90 q 997 20 1017 40 q 949 0 977 0 q 901 20 921 0 q 888 39 892 29 l 887 39 l 774 271 l 310 271 m 709 407 l 543 749 l 376 407 l 709 407 m 543 1062 l 491 1010 q 442 989 471 989 q 393 1010 413 989 q 372 1058 372 1030 l 373 1059 q 393 1107 373 1087 l 494 1208 q 543 1229 514 1228 q 566 1225 555 1229 q 593 1208 581 1219 l 693 1107 q 713 1059 713 1087 q 693 1010 713 1029 q 645 989 673 989 l 644 989 q 595 1010 616 989 l 543 1062 z "},"Ã":{"ha":1087,"x_min":68,"x_max":1017,"o":"m 310 271 l 197 39 q 184 20 193 29 q 136 0 163 0 q 87 20 107 0 q 68 68 68 40 q 78 103 68 87 l 480 932 q 494 952 485 943 q 543 972 514 972 q 591 952 570 972 q 604 935 599 944 l 1006 106 q 1017 68 1017 90 q 997 20 1017 40 q 949 0 977 0 q 901 20 921 0 q 888 39 892 29 l 887 39 l 774 271 l 310 271 m 709 407 l 543 749 l 376 407 l 709 407 m 661 1092 q 676 1128 661 1113 q 712 1143 691 1143 q 748 1128 733 1143 q 763 1092 763 1113 q 723 996 763 1036 q 627 956 684 956 q 531 996 571 956 q 492 1092 492 1036 q 482 1116 492 1105 q 458 1126 472 1126 q 434 1116 444 1126 q 424 1092 424 1105 q 409 1056 424 1071 q 373 1041 394 1041 q 337 1056 352 1041 q 322 1092 322 1071 q 362 1188 322 1148 q 458 1227 401 1227 q 554 1188 514 1227 q 593 1092 593 1148 q 603 1068 593 1078 q 627 1058 613 1058 q 651 1068 642 1058 q 661 1092 661 1078 z "},"Ä":{"ha":1087,"x_min":68,"x_max":1017,"o":"m 310 271 l 197 39 q 184 20 193 29 q 136 0 163 0 q 87 20 107 0 q 68 68 68 40 q 78 103 68 87 l 480 932 q 494 952 485 943 q 543 972 514 972 q 591 952 570 972 q 604 935 599 944 l 1006 106 q 1017 68 1017 90 q 997 20 1017 40 q 949 0 977 0 q 901 20 921 0 q 888 39 892 29 l 887 39 l 774 271 l 310 271 m 709 407 l 543 749 l 376 407 l 709 407 m 441 1160 q 489 1140 469 1160 q 509 1092 509 1120 q 489 1044 509 1064 q 441 1024 469 1024 q 393 1044 413 1024 q 373 1092 373 1064 q 393 1140 373 1120 q 441 1160 413 1160 m 644 1160 q 692 1140 672 1160 q 712 1092 712 1120 q 692 1044 712 1064 q 644 1024 672 1024 q 596 1044 616 1024 q 576 1092 576 1064 q 596 1140 576 1120 q 644 1160 616 1160 z "},"Å":{"ha":1087,"x_min":68,"x_max":1017,"o":"m 310 271 l 197 39 q 184 20 193 29 q 136 0 163 0 q 87 20 107 0 q 68 68 68 40 q 78 103 68 87 l 480 932 q 494 952 485 943 q 543 972 514 972 q 591 952 570 972 q 604 935 599 944 l 1006 106 q 1017 68 1017 90 q 997 20 1017 40 q 949 0 977 0 q 901 20 921 0 q 888 39 892 29 l 887 39 l 774 271 l 310 271 m 709 407 l 543 749 l 376 407 l 709 407 m 543 1242 q 637 1202 598 1242 q 677 1107 677 1163 q 637 1013 677 1052 q 543 973 598 973 q 448 1013 487 973 q 408 1107 408 1052 q 448 1202 408 1163 q 543 1242 487 1242 m 542 1163 q 503 1147 519 1163 q 486 1107 486 1131 q 503 1068 486 1084 q 542 1051 519 1051 q 582 1068 566 1051 q 598 1107 598 1084 q 582 1147 598 1131 q 542 1163 566 1163 z "},"Æ":{"ha":1358,"x_min":68,"x_max":1284,"o":"m 622 941 q 631 952 626 947 q 680 972 651 972 l 1215 972 q 1264 952 1244 972 q 1284 903 1284 932 q 1264 854 1284 875 q 1215 834 1244 834 l 749 834 l 749 681 l 951 681 q 1000 661 979 681 q 1020 612 1020 640 q 1000 563 1020 583 q 951 543 979 543 l 749 543 l 749 138 l 1215 138 q 1264 118 1244 138 q 1284 69 1284 98 q 1264 20 1284 41 q 1215 0 1244 0 l 680 0 q 631 20 651 0 q 610 69 610 41 l 610 271 l 348 271 l 196 37 q 184 20 191 28 q 136 0 163 0 q 87 20 107 0 q 68 68 68 39 q 79 105 68 89 l 621 942 l 622 941 m 610 407 l 610 675 l 436 407 l 610 407 z "},"Ç":{"ha":949,"x_min":68,"x_max":884,"o":"m 477 5 q 210 142 325 28 q 68 486 68 285 q 210 830 68 688 q 554 972 353 972 q 863 863 731 972 l 862 862 q 863 861 863 861 q 884 812 884 840 q 863 763 884 783 q 814 743 843 743 q 766 763 786 743 q 764 764 765 764 l 764 764 q 554 834 673 834 q 308 732 410 834 q 206 486 206 630 q 308 240 206 342 q 554 138 410 138 q 764 209 673 138 l 764 208 q 766 210 765 209 q 814 230 786 230 q 863 210 843 230 q 884 161 884 189 q 863 112 884 132 q 862 111 863 111 l 863 110 q 578 1 740 7 q 579 -11 579 -5 l 579 -28 q 616 -54 599 -37 q 652 -144 652 -92 q 615 -234 652 -197 q 526 -271 578 -271 q 489 -256 504 -271 q 475 -220 475 -241 q 489 -184 475 -199 q 526 -169 504 -169 q 544 -162 536 -169 q 551 -144 551 -155 q 544 -125 551 -133 q 531 -119 538 -120 l 527 -119 q 507 -115 516 -119 q 490 -103 497 -111 q 475 -67 475 -89 q 475 -58 475 -63 l 475 -11 q 477 5 475 -2 z "},"È":{"ha":796,"x_min":68,"x_max":742,"o":"m 68 903 q 88 952 68 932 q 137 972 109 972 l 673 972 q 722 952 701 972 q 742 903 742 932 q 722 854 742 875 q 673 834 701 834 l 206 834 l 206 681 l 408 681 q 457 661 437 681 q 477 612 477 640 q 457 563 477 583 q 408 543 437 543 l 206 543 l 206 138 l 673 138 q 722 118 701 138 q 742 69 742 98 q 722 20 742 41 q 673 0 701 0 l 137 0 q 88 20 109 0 q 68 69 68 41 l 68 903 m 226 1091 q 193 1133 201 1105 q 191 1152 191 1143 q 200 1185 191 1169 q 242 1218 215 1211 q 260 1220 252 1220 q 295 1211 278 1220 l 477 1105 q 509 1064 502 1091 q 512 1045 512 1055 q 503 1011 512 1027 q 460 979 488 987 q 441 977 451 977 q 408 986 424 977 l 226 1091 z "},"É":{"ha":796,"x_min":68,"x_max":742,"o":"m 68 903 q 88 952 68 932 q 137 972 109 972 l 673 972 q 722 952 701 972 q 742 903 742 932 q 722 854 742 875 q 673 834 701 834 l 206 834 l 206 681 l 408 681 q 457 661 437 681 q 477 612 477 640 q 457 563 477 583 q 408 543 437 543 l 206 543 l 206 138 l 673 138 q 722 118 701 138 q 742 69 742 98 q 722 20 742 41 q 673 0 701 0 l 137 0 q 88 20 109 0 q 68 69 68 41 l 68 903 m 402 986 q 368 977 386 977 q 349 979 359 977 q 307 1011 321 987 q 298 1045 298 1027 q 300 1064 298 1055 q 333 1105 308 1091 l 515 1211 q 549 1220 532 1220 q 568 1218 558 1220 q 610 1185 595 1211 q 619 1152 619 1169 q 616 1133 619 1143 q 584 1091 609 1105 l 402 986 z "},"Ê":{"ha":796,"x_min":68,"x_max":742,"o":"m 68 903 q 88 952 68 932 q 137 972 109 972 l 673 972 q 722 952 701 972 q 742 903 742 932 q 722 854 742 875 q 673 834 701 834 l 206 834 l 206 681 l 408 681 q 457 661 437 681 q 477 612 477 640 q 457 563 477 583 q 408 543 437 543 l 206 543 l 206 138 l 673 138 q 722 118 701 138 q 742 69 742 98 q 722 20 742 41 q 673 0 701 0 l 137 0 q 88 20 109 0 q 68 69 68 41 l 68 903 m 406 1062 l 353 1010 q 304 989 333 989 q 256 1010 275 989 q 235 1058 235 1030 l 235 1059 q 256 1107 235 1087 l 356 1208 q 405 1229 376 1228 q 429 1225 418 1229 q 455 1208 444 1219 l 555 1107 q 576 1059 576 1087 q 555 1010 576 1029 q 507 989 535 989 l 507 989 q 458 1010 478 989 l 406 1062 z "},"Ë":{"ha":796,"x_min":68,"x_max":742,"o":"m 68 903 q 88 952 68 932 q 137 972 109 972 l 673 972 q 722 952 701 972 q 742 903 742 932 q 722 854 742 875 q 673 834 701 834 l 206 834 l 206 681 l 408 681 q 457 661 437 681 q 477 612 477 640 q 457 563 477 583 q 408 543 437 543 l 206 543 l 206 138 l 673 138 q 722 118 701 138 q 742 69 742 98 q 722 20 742 41 q 673 0 701 0 l 137 0 q 88 20 109 0 q 68 69 68 41 l 68 903 m 303 1160 q 351 1140 331 1160 q 371 1092 371 1120 q 351 1044 371 1064 q 303 1024 331 1024 q 255 1044 275 1024 q 235 1092 235 1064 q 255 1140 235 1120 q 303 1160 275 1160 m 507 1160 q 554 1140 534 1160 q 574 1092 574 1120 q 554 1044 574 1064 q 507 1024 534 1024 q 459 1044 479 1024 q 439 1092 439 1064 q 459 1140 439 1120 q 507 1160 479 1160 z "},"Ì":{"ha":272,"x_min":-77,"x_max":244,"o":"m 137 972 q 186 952 165 972 q 206 903 206 932 l 206 69 q 186 20 206 41 q 137 0 165 0 q 88 20 109 0 q 68 69 68 41 l 68 903 q 88 952 68 932 q 137 972 109 972 m -42 1091 q -75 1133 -67 1105 q -77 1152 -77 1143 q -68 1185 -77 1169 q -26 1218 -53 1211 q -7 1220 -16 1220 q 27 1211 10 1220 l 209 1105 q 241 1064 234 1091 q 244 1045 244 1055 q 235 1011 244 1027 q 193 979 220 987 q 174 977 183 977 q 140 986 156 977 l -42 1091 z "},"Í":{"ha":272,"x_min":30,"x_max":351,"o":"m 137 972 q 186 952 165 972 q 206 903 206 932 l 206 69 q 186 20 206 41 q 137 0 165 0 q 88 20 109 0 q 68 69 68 41 l 68 903 q 88 952 68 932 q 137 972 109 972 m 134 986 q 100 977 118 977 q 81 979 91 977 q 39 1011 54 987 q 30 1045 30 1027 q 33 1064 30 1055 q 65 1105 40 1091 l 247 1211 q 281 1220 264 1220 q 300 1218 290 1220 q 342 1185 327 1211 q 351 1152 351 1169 q 349 1133 351 1143 q 316 1091 341 1105 l 134 986 z "},"Î":{"ha":272,"x_min":-33,"x_max":308,"o":"m 138 972 q 186 952 166 972 q 207 903 207 932 l 207 69 q 186 20 207 41 q 138 0 166 0 q 89 20 109 0 q 68 69 68 41 l 68 903 q 89 952 68 932 q 138 972 109 972 m 138 1062 l 85 1010 q 37 989 65 989 q -12 1010 7 989 q -33 1058 -33 1030 l -33 1059 q -12 1107 -33 1087 l 88 1208 q 137 1229 109 1228 q 161 1225 150 1229 q 187 1208 176 1219 l 288 1107 q 308 1059 308 1087 q 288 1010 308 1029 q 239 989 267 989 l 239 989 q 190 1010 210 989 l 138 1062 z "},"Ï":{"ha":272,"x_min":-33,"x_max":307,"o":"m 137 972 q 186 952 165 972 q 206 903 206 932 l 206 69 q 186 20 206 41 q 137 0 165 0 q 88 20 109 0 q 68 69 68 41 l 68 903 q 88 952 68 932 q 137 972 109 972 m 35 1160 q 83 1140 63 1160 q 103 1092 103 1120 q 83 1044 103 1064 q 35 1024 63 1024 q -13 1044 7 1024 q -33 1092 -33 1064 q -13 1140 -33 1120 q 35 1160 7 1160 m 239 1160 q 287 1140 267 1160 q 307 1092 307 1120 q 287 1044 307 1064 q 239 1024 267 1024 q 191 1044 211 1024 q 171 1092 171 1064 q 191 1140 171 1120 q 239 1160 211 1160 z "},"Ð":{"ha":949,"x_min":68,"x_max":1027,"o":"m 203 545 l 203 903 q 224 952 203 932 q 273 972 244 972 l 541 972 q 884 830 742 972 q 1027 486 1027 688 q 884 142 1027 285 q 541 0 742 0 l 273 0 q 224 20 244 0 q 203 69 203 41 l 203 407 l 137 407 q 88 427 109 407 q 68 476 68 448 q 88 525 68 505 q 137 545 109 545 l 203 545 m 342 545 l 537 545 q 586 525 566 545 q 606 476 606 505 q 586 427 606 448 q 537 407 566 407 l 342 407 l 342 138 l 541 138 q 786 240 684 138 q 888 486 888 342 q 786 732 888 630 q 541 834 684 834 l 342 834 l 342 545 z "},"Ñ":{"ha":949,"x_min":68,"x_max":884,"o":"m 206 709 l 206 69 q 186 20 206 41 q 137 0 165 0 q 88 20 109 0 q 68 69 68 41 l 68 903 q 88 952 68 932 q 137 972 109 972 q 186 952 165 972 q 199 935 194 944 l 746 259 l 746 903 q 766 952 746 932 q 815 972 787 972 q 864 952 844 972 q 884 903 884 932 l 884 69 q 864 20 884 41 q 815 0 844 0 q 766 20 787 0 q 761 25 764 23 l 206 709 m 595 1092 q 610 1128 595 1113 q 646 1143 625 1143 q 682 1128 667 1143 q 696 1092 696 1113 q 657 996 696 1036 q 561 956 617 956 q 465 996 505 956 q 425 1092 425 1036 q 415 1116 425 1105 q 391 1126 406 1126 q 367 1116 377 1126 q 357 1092 357 1105 q 342 1056 357 1071 q 307 1041 328 1041 q 271 1056 286 1041 q 256 1092 256 1071 q 295 1188 256 1148 q 391 1227 335 1227 q 487 1188 448 1227 q 527 1092 527 1148 q 537 1068 527 1078 q 561 1058 547 1058 q 585 1068 575 1058 q 595 1092 595 1078 z "},"Ò":{"ha":1120,"x_min":68,"x_max":1040,"o":"m 554 972 q 898 830 755 972 q 1040 486 1040 688 q 898 142 1040 285 q 554 0 755 0 q 210 142 353 0 q 68 486 68 285 q 210 830 68 688 q 554 972 353 972 m 554 834 q 308 732 410 834 q 206 486 206 630 q 308 240 206 342 q 554 138 410 138 q 800 240 698 138 q 902 486 902 342 q 800 732 902 630 q 554 834 698 834 m 375 1091 q 342 1133 350 1105 q 340 1152 340 1143 q 349 1185 340 1169 q 391 1218 364 1211 q 410 1220 401 1220 q 444 1211 427 1220 l 626 1105 q 659 1064 651 1091 q 661 1045 661 1055 q 652 1011 661 1027 q 610 979 637 987 q 591 977 600 977 q 557 986 573 977 l 375 1091 z "},"Ó":{"ha":1120,"x_min":68,"x_max":1040,"o":"m 554 972 q 898 830 755 972 q 1040 486 1040 688 q 898 142 1040 285 q 554 0 755 0 q 210 142 353 0 q 68 486 68 285 q 210 830 68 688 q 554 972 353 972 m 554 834 q 308 732 410 834 q 206 486 206 630 q 308 240 206 342 q 554 138 410 138 q 800 240 698 138 q 902 486 902 342 q 800 732 902 630 q 554 834 698 834 m 551 986 q 517 977 535 977 q 498 979 508 977 q 456 1011 471 987 q 447 1045 447 1027 q 450 1064 447 1055 q 482 1105 457 1091 l 664 1211 q 699 1220 681 1220 q 717 1218 707 1220 q 759 1185 744 1211 q 768 1152 768 1169 q 766 1133 768 1143 q 733 1091 758 1105 l 551 986 z "},"Ô":{"ha":1120,"x_min":68,"x_max":1040,"o":"m 554 972 q 898 830 755 972 q 1040 486 1040 688 q 898 142 1040 285 q 554 0 755 0 q 210 142 353 0 q 68 486 68 285 q 210 830 68 688 q 554 972 353 972 m 554 834 q 308 732 410 834 q 206 486 206 630 q 308 240 206 342 q 554 138 410 138 q 800 240 698 138 q 902 486 902 342 q 800 732 902 630 q 554 834 698 834 m 555 1062 l 503 1010 q 454 989 482 989 q 405 1010 425 989 q 384 1058 384 1030 l 385 1059 q 405 1107 385 1087 l 505 1208 q 554 1229 526 1228 q 578 1225 567 1229 q 604 1208 593 1219 l 705 1107 q 725 1059 725 1087 q 705 1010 725 1029 q 656 989 684 989 l 656 989 q 607 1010 627 989 l 555 1062 z "},"Õ":{"ha":1120,"x_min":68,"x_max":1040,"o":"m 554 972 q 898 830 755 972 q 1040 486 1040 688 q 898 142 1040 285 q 554 0 755 0 q 210 142 353 0 q 68 486 68 285 q 210 830 68 688 q 554 972 353 972 m 554 834 q 308 732 410 834 q 206 486 206 630 q 308 240 206 342 q 554 138 410 138 q 800 240 698 138 q 902 486 902 342 q 800 732 902 630 q 554 834 698 834 m 677 1107 q 692 1143 677 1128 q 728 1158 707 1158 q 764 1143 749 1158 q 779 1107 779 1128 q 740 1011 779 1050 q 644 971 700 971 q 548 1011 587 971 q 508 1107 508 1050 q 498 1131 508 1120 q 474 1141 488 1141 q 450 1131 460 1141 q 440 1107 440 1120 q 425 1071 440 1086 q 389 1056 410 1056 q 353 1071 368 1056 q 338 1107 338 1086 q 378 1203 338 1163 q 474 1242 418 1242 q 570 1203 530 1242 q 610 1107 610 1163 q 620 1083 610 1093 q 644 1073 629 1073 q 668 1083 658 1073 q 677 1107 677 1093 z "},"Ö":{"ha":1120,"x_min":68,"x_max":1040,"o":"m 554 972 q 898 830 755 972 q 1040 486 1040 688 q 898 142 1040 285 q 554 0 755 0 q 210 142 353 0 q 68 486 68 285 q 210 830 68 688 q 554 972 353 972 m 554 834 q 308 732 410 834 q 206 486 206 630 q 308 240 206 342 q 554 138 410 138 q 800 240 698 138 q 902 486 902 342 q 800 732 902 630 q 554 834 698 834 m 452 1160 q 500 1140 480 1160 q 520 1092 520 1120 q 500 1044 520 1064 q 452 1024 480 1024 q 405 1044 425 1024 q 385 1092 385 1064 q 405 1140 385 1120 q 452 1160 425 1160 m 656 1160 q 704 1140 684 1160 q 724 1092 724 1120 q 704 1044 724 1064 q 656 1024 684 1024 q 608 1044 628 1024 q 588 1092 588 1064 q 608 1140 588 1120 q 656 1160 628 1160 z "},"×":{"ha":463,"x_min":62,"x_max":393,"o":"m 228 375 l 181 328 q 132 307 161 307 l 132 308 q 83 328 103 308 q 63 376 63 348 l 62 377 q 83 426 62 406 l 130 473 l 83 519 q 63 568 63 540 l 62 569 q 83 618 62 597 q 132 637 103 637 q 181 618 161 637 l 228 570 l 275 618 q 324 637 295 637 q 372 618 353 637 q 393 569 393 597 q 372 519 393 540 l 326 473 l 372 426 q 393 377 393 406 q 372 328 393 348 q 324 307 352 307 l 323 308 q 275 328 295 308 l 228 375 z "},"Ø":{"ha":1120,"x_min":68,"x_max":1040,"o":"m 669 816 q 554 834 615 834 q 308 732 410 834 q 206 486 206 630 q 308 241 206 342 q 326 223 317 231 l 669 816 m 446 155 q 554 138 497 138 q 800 240 698 138 q 902 486 902 342 q 800 732 902 630 q 787 745 793 739 l 446 155 m 858 867 q 898 830 878 850 q 1040 486 1040 688 q 898 142 1040 285 q 554 0 755 0 q 376 32 458 0 l 345 -22 q 302 -54 330 -47 q 283 -57 293 -57 q 250 -47 266 -57 q 218 -5 225 -33 q 215 14 215 4 q 224 47 215 31 l 256 102 q 210 142 233 120 q 68 486 68 285 q 210 830 68 688 q 554 972 353 972 q 739 938 654 972 l 764 981 q 806 1013 778 1006 q 825 1016 815 1016 q 858 1006 842 1016 q 890 964 883 991 q 893 945 893 955 q 884 911 893 928 l 858 867 z "},"Ù":{"ha":815,"x_min":68,"x_max":747,"o":"m 402 0 q 167 100 259 8 q 68 336 69 198 l 68 903 q 88 954 68 936 q 137 972 109 972 q 186 954 165 972 q 206 905 206 936 l 206 338 q 205 326 206 332 q 264 197 210 251 q 406 138 323 138 l 409 138 q 551 197 492 138 q 610 326 606 251 q 609 338 609 332 l 609 905 q 629 954 609 936 q 678 972 650 972 q 727 954 707 972 q 747 903 747 936 l 747 336 q 648 100 746 198 q 413 0 556 8 l 402 0 m 229 1091 q 196 1133 203 1105 q 193 1152 193 1143 q 203 1185 193 1169 q 245 1218 218 1211 q 263 1220 254 1220 q 298 1211 281 1220 l 479 1105 q 512 1064 505 1091 q 515 1045 515 1055 q 505 1011 515 1027 q 463 979 491 987 q 444 977 454 977 q 410 986 427 977 l 229 1091 z "},"Ú":{"ha":815,"x_min":68,"x_max":747,"o":"m 402 0 q 167 100 259 8 q 68 336 69 198 l 68 903 q 88 954 68 936 q 137 972 109 972 q 186 954 165 972 q 206 905 206 936 l 206 338 q 205 326 206 332 q 264 197 210 251 q 406 138 323 138 l 409 138 q 551 197 492 138 q 610 326 606 251 q 609 338 609 332 l 609 905 q 629 954 609 936 q 678 972 650 972 q 727 954 707 972 q 747 903 747 936 l 747 336 q 648 100 746 198 q 413 0 556 8 l 402 0 m 405 986 q 371 977 389 977 q 352 979 361 977 q 310 1011 324 987 q 300 1045 300 1027 q 303 1064 300 1055 q 336 1105 311 1091 l 517 1211 q 552 1220 534 1220 q 570 1218 561 1220 q 612 1185 597 1211 q 622 1152 622 1169 q 619 1133 622 1143 q 587 1091 612 1105 l 405 986 z "},"Û":{"ha":815,"x_min":68,"x_max":747,"o":"m 402 0 q 167 100 259 8 q 68 336 69 198 l 68 903 q 88 954 68 936 q 137 972 109 972 q 186 954 165 972 q 206 905 206 936 l 206 338 q 205 326 206 332 q 264 197 210 251 q 406 138 323 138 l 409 138 q 551 197 492 138 q 610 326 606 251 q 609 338 609 332 l 609 905 q 629 954 609 936 q 678 972 650 972 q 727 954 707 972 q 747 903 747 936 l 747 336 q 648 100 746 198 q 413 0 556 8 l 402 0 m 408 1062 l 356 1010 q 307 989 336 989 q 258 1010 278 989 q 237 1058 237 1030 l 238 1059 q 258 1107 238 1087 l 359 1208 q 408 1229 379 1228 q 431 1225 420 1229 q 458 1208 446 1219 l 558 1107 q 578 1059 578 1087 q 558 1010 578 1029 q 510 989 538 989 l 509 989 q 460 1010 481 989 l 408 1062 z "},"Ü":{"ha":815,"x_min":68,"x_max":747,"o":"m 402 0 q 167 100 259 8 q 68 336 69 198 l 68 903 q 88 954 68 936 q 137 972 109 972 q 186 954 165 972 q 206 905 206 936 l 206 338 q 205 326 206 332 q 264 197 210 251 q 406 138 323 138 l 409 138 q 551 197 492 138 q 610 326 606 251 q 609 338 609 332 l 609 905 q 629 954 609 936 q 678 972 650 972 q 727 954 707 972 q 747 903 747 936 l 747 336 q 648 100 746 198 q 413 0 556 8 l 402 0 m 306 1160 q 354 1140 334 1160 q 374 1092 374 1120 q 354 1044 374 1064 q 306 1024 334 1024 q 258 1044 278 1024 q 238 1092 238 1064 q 258 1140 238 1120 q 306 1160 278 1160 m 509 1160 q 557 1140 537 1160 q 577 1092 577 1120 q 557 1044 577 1064 q 509 1024 537 1024 q 461 1044 481 1024 q 441 1092 441 1064 q 461 1140 441 1120 q 509 1160 481 1160 z "},"Ý":{"ha":815,"x_min":68,"x_max":746,"o":"m 79 866 q 68 905 68 883 q 88 952 68 932 q 136 972 108 972 q 184 953 164 972 q 197 935 192 945 l 407 628 l 622 943 q 631 953 626 948 q 678 972 650 972 q 726 952 707 972 q 746 905 746 932 q 730 861 746 879 l 475 488 l 475 68 q 455 20 475 39 q 407 0 435 0 q 359 20 379 0 q 339 68 339 39 l 339 487 l 79 866 m 404 986 q 370 977 388 977 q 351 979 361 977 q 309 1011 323 987 q 300 1045 300 1027 q 302 1064 300 1055 q 335 1105 310 1091 l 517 1211 q 551 1220 534 1220 q 570 1218 560 1220 q 612 1185 597 1211 q 621 1152 621 1169 q 618 1133 621 1143 q 586 1091 611 1105 l 404 986 z "},"Þ":{"ha":753,"x_min":68,"x_max":699,"o":"m 206 837 l 415 838 q 615 755 532 838 q 699 555 699 672 q 615 354 699 437 q 415 271 532 271 l 206 271 l 206 -66 q 186 -115 206 -95 q 137 -136 165 -136 q 88 -115 109 -136 q 68 -66 68 -95 l 68 1019 q 88 1067 68 1047 q 137 1088 109 1088 q 186 1067 165 1088 q 206 1019 206 1047 l 206 837 m 206 408 l 415 408 q 519 451 476 408 q 562 555 562 494 q 519 658 562 615 q 415 701 476 701 l 206 701 l 206 408 z "},"ß":{"ha":729,"x_min":68,"x_max":644,"o":"m 407 140 q 479 170 449 140 q 509 242 509 200 q 479 314 509 284 q 407 344 449 344 q 287 394 336 344 q 237 513 237 444 q 283 630 237 582 l 363 721 l 363 722 q 383 769 383 741 q 363 817 383 798 q 315 837 343 837 l 305 837 q 233 807 263 837 q 203 735 203 777 l 206 69 q 186 20 206 41 q 137 0 165 0 q 88 20 109 0 q 68 69 68 41 l 68 735 q 137 903 68 833 q 305 972 207 972 l 315 972 q 459 913 399 972 q 519 769 519 854 q 446 606 519 685 q 373 513 373 526 q 383 489 373 499 q 407 479 393 479 q 575 410 505 479 q 644 242 644 340 q 575 74 644 144 q 407 5 505 5 q 359 24 378 5 q 339 73 339 44 q 359 120 339 100 q 407 140 378 140 z "},"à":{"ha":815,"x_min":68,"x_max":745,"o":"m 549 481 q 406 540 490 540 q 264 481 323 540 q 205 339 205 422 q 264 197 205 256 q 406 138 323 138 q 549 197 490 138 q 606 315 599 247 l 606 340 q 607 353 606 347 q 549 481 603 427 m 745 66 q 724 14 745 27 q 675 0 704 0 q 627 14 647 0 q 606 65 606 27 q 406 0 519 0 q 167 99 266 0 q 68 338 68 198 q 167 578 68 479 q 406 677 266 677 q 646 578 547 677 q 745 342 743 480 l 745 66 m 227 813 q 195 855 202 827 q 192 874 192 865 q 201 907 192 891 q 243 940 216 932 q 262 942 253 942 q 296 932 279 942 l 478 827 q 511 786 503 813 q 513 767 513 777 q 504 733 513 749 q 462 701 490 709 q 443 699 452 699 q 409 708 425 699 l 227 813 z "},"á":{"ha":815,"x_min":68,"x_max":745,"o":"m 549 481 q 406 540 490 540 q 264 481 323 540 q 205 339 205 422 q 264 197 205 256 q 406 138 323 138 q 549 197 490 138 q 606 315 599 247 l 606 340 q 607 353 606 347 q 549 481 603 427 m 745 66 q 724 14 745 27 q 675 0 704 0 q 627 14 647 0 q 606 65 606 27 q 406 0 519 0 q 167 99 266 0 q 68 338 68 198 q 167 578 68 479 q 406 677 266 677 q 646 578 547 677 q 745 342 743 480 l 745 66 m 404 708 q 370 699 387 699 q 351 701 360 699 q 309 733 323 709 q 299 767 299 749 q 302 786 299 777 q 334 827 309 813 l 516 932 q 551 942 533 942 q 569 940 559 942 q 611 907 596 932 q 621 874 621 891 q 618 855 621 865 q 585 813 610 827 l 404 708 z "},"â":{"ha":815,"x_min":68,"x_max":745,"o":"m 549 481 q 406 540 490 540 q 264 481 323 540 q 205 339 205 422 q 264 197 205 256 q 406 138 323 138 q 549 197 490 138 q 606 315 599 247 l 606 340 q 607 353 606 347 q 549 481 603 427 m 745 66 q 724 14 745 27 q 675 0 704 0 q 627 14 647 0 q 606 65 606 27 q 406 0 519 0 q 167 99 266 0 q 68 338 68 198 q 167 578 68 479 q 406 677 266 677 q 646 578 547 677 q 745 342 743 480 l 745 66 m 407 784 l 355 732 q 306 711 334 711 q 257 732 277 711 q 236 780 236 752 l 237 781 q 257 829 237 809 l 357 930 q 406 951 378 950 q 430 947 419 951 q 456 930 445 941 l 557 829 q 577 781 577 809 q 557 732 577 751 q 509 711 536 711 l 508 711 q 459 732 479 711 l 407 784 z "},"ã":{"ha":815,"x_min":68,"x_max":745,"o":"m 549 481 q 406 540 490 540 q 264 481 323 540 q 205 339 205 422 q 264 197 205 256 q 406 138 323 138 q 549 197 490 138 q 606 315 599 247 l 606 340 q 607 353 606 347 q 549 481 603 427 m 745 66 q 724 14 745 27 q 675 0 704 0 q 627 14 647 0 q 606 65 606 27 q 406 0 519 0 q 167 99 266 0 q 68 338 68 198 q 167 578 68 479 q 406 677 266 677 q 646 578 547 677 q 745 342 743 480 l 745 66 m 525 814 q 540 850 525 835 q 576 865 555 865 q 612 850 597 865 q 627 814 627 835 q 587 718 627 758 q 491 678 547 678 q 395 718 435 678 q 355 814 355 758 q 346 838 355 827 q 321 848 336 848 q 297 838 307 848 q 288 814 288 827 q 273 778 288 793 q 237 763 258 763 q 201 778 216 763 q 186 814 186 793 q 225 910 186 870 q 321 949 265 949 q 417 910 378 949 q 457 814 457 870 q 467 790 457 800 q 491 780 477 780 q 515 790 505 780 q 525 814 525 800 z "},"ä":{"ha":815,"x_min":68,"x_max":745,"o":"m 549 481 q 406 540 490 540 q 264 481 323 540 q 205 339 205 422 q 264 197 205 256 q 406 138 323 138 q 549 197 490 138 q 606 315 599 247 l 606 340 q 607 353 606 347 q 549 481 603 427 m 745 66 q 724 14 745 27 q 675 0 704 0 q 627 14 647 0 q 606 65 606 27 q 406 0 519 0 q 167 99 266 0 q 68 338 68 198 q 167 578 68 479 q 406 677 266 677 q 646 578 547 677 q 745 342 743 480 l 745 66 m 304 882 q 352 862 332 882 q 372 814 372 842 q 352 766 372 786 q 304 746 332 746 q 257 766 277 746 q 237 814 237 786 q 257 862 237 842 q 304 882 277 882 m 508 882 q 556 862 536 882 q 576 814 576 842 q 556 766 576 786 q 508 746 536 746 q 460 766 480 746 q 440 814 440 786 q 460 862 440 842 q 508 882 480 882 z "},"å":{"ha":815,"x_min":68,"x_max":745,"o":"m 549 481 q 406 540 490 540 q 264 481 323 540 q 205 339 205 422 q 264 197 205 256 q 406 138 323 138 q 549 197 490 138 q 606 315 599 247 l 606 340 q 607 353 606 347 q 549 481 603 427 m 745 66 q 724 14 745 27 q 675 0 704 0 q 627 14 647 0 q 606 65 606 27 q 406 0 519 0 q 167 99 266 0 q 68 338 68 198 q 167 578 68 479 q 406 677 266 677 q 646 578 547 677 q 745 342 743 480 l 745 66 m 406 964 q 501 924 462 964 q 541 829 541 885 q 501 734 541 774 q 406 695 462 695 q 311 734 351 695 q 272 829 272 774 q 311 924 272 885 q 406 964 351 964 m 406 885 q 366 869 382 885 q 350 829 350 852 q 366 790 350 806 q 406 773 382 773 q 446 790 429 773 q 462 829 462 806 q 446 869 462 852 q 406 885 429 885 z "},"æ":{"ha":1287,"x_min":68,"x_max":1209,"o":"m 549 481 q 406 540 490 540 q 264 481 323 540 q 205 339 205 422 q 264 197 205 256 q 406 138 323 138 q 549 197 490 138 q 606 315 599 247 l 606 340 q 607 353 606 347 q 549 481 603 427 m 745 68 l 745 66 q 724 14 745 27 q 675 0 704 0 q 627 14 647 0 q 606 65 606 27 q 406 0 519 0 q 167 99 266 0 q 68 338 68 198 q 167 578 68 479 q 406 677 266 677 q 646 578 547 677 q 677 542 663 560 q 709 578 692 560 q 949 677 808 677 q 1187 578 1089 677 l 1187 578 q 1187 577 1187 577 q 1207 529 1207 557 q 1187 481 1207 501 l 994 289 q 945 269 973 269 q 895 289 916 269 q 876 338 876 309 q 895 387 876 367 l 1031 523 q 949 540 994 540 q 806 481 865 540 q 747 339 747 422 q 806 197 747 256 q 949 138 865 138 q 1090 196 1031 138 q 1092 197 1091 197 q 1140 217 1112 217 q 1189 197 1168 217 q 1209 149 1209 177 q 1189 100 1209 120 q 1187 98 1188 99 q 949 0 1089 0 q 745 68 833 0 z "},"ç":{"ha":744,"x_min":68,"x_max":667,"o":"m 342 5 q 167 99 242 24 q 68 338 68 198 q 167 578 68 479 q 406 677 266 677 q 645 578 547 677 l 644 578 q 645 577 644 577 q 665 529 665 557 q 645 481 665 501 q 597 461 625 461 q 549 481 568 461 l 548 481 q 406 540 490 540 q 264 481 323 540 q 205 339 205 422 q 264 197 205 256 q 406 138 323 138 q 548 196 489 138 q 549 197 549 197 q 597 217 569 217 q 646 197 626 217 q 667 149 667 177 q 646 100 667 120 q 645 98 646 99 q 442 1 559 13 q 444 -11 444 -4 l 444 -28 q 480 -54 463 -37 q 517 -144 517 -92 q 480 -234 517 -197 q 390 -271 443 -271 q 354 -256 368 -271 q 339 -220 339 -241 q 354 -184 339 -199 q 390 -169 368 -169 q 408 -162 401 -169 q 415 -144 415 -155 q 408 -125 415 -133 q 395 -119 403 -120 l 391 -119 q 371 -115 380 -119 q 354 -103 361 -111 q 339 -67 339 -89 q 340 -58 339 -63 l 340 -11 q 342 5 340 -2 z "},"è":{"ha":744,"x_min":68,"x_max":667,"o":"m 488 523 q 406 540 451 540 q 264 481 323 540 q 205 339 205 422 q 264 197 205 256 q 406 138 323 138 q 548 196 489 138 q 549 197 549 197 q 597 217 569 217 q 646 197 626 217 q 667 149 667 177 q 646 100 667 120 q 645 98 646 99 q 406 0 547 0 q 167 99 266 0 q 68 338 68 198 q 167 578 68 479 q 406 677 266 677 q 645 578 547 677 l 644 578 q 645 577 644 577 q 665 529 665 557 q 645 481 665 501 l 451 289 q 402 269 431 269 q 353 289 373 269 q 333 338 333 309 q 353 387 333 367 l 488 523 m 189 813 q 156 855 163 827 q 153 874 153 865 q 163 907 153 891 q 205 940 178 932 q 223 942 214 942 q 258 932 241 942 l 439 827 q 472 786 465 813 q 475 767 475 777 q 465 733 475 749 q 423 701 451 709 q 404 699 414 699 q 370 708 387 699 l 189 813 z "},"é":{"ha":744,"x_min":68,"x_max":667,"o":"m 488 523 q 406 540 451 540 q 264 481 323 540 q 205 339 205 422 q 264 197 205 256 q 406 138 323 138 q 548 196 489 138 q 549 197 549 197 q 597 217 569 217 q 646 197 626 217 q 667 149 667 177 q 646 100 667 120 q 645 98 646 99 q 406 0 547 0 q 167 99 266 0 q 68 338 68 198 q 167 578 68 479 q 406 677 266 677 q 645 578 547 677 l 644 578 q 645 577 644 577 q 665 529 665 557 q 645 481 665 501 l 451 289 q 402 269 431 269 q 353 289 373 269 q 333 338 333 309 q 353 387 333 367 l 488 523 m 365 708 q 331 699 349 699 q 312 701 321 699 q 270 733 284 709 q 260 767 260 749 q 263 786 260 777 q 296 827 271 813 l 477 932 q 512 942 494 942 q 530 940 521 942 q 572 907 557 932 q 582 874 582 891 q 579 855 582 865 q 547 813 572 827 l 365 708 z "},"ê":{"ha":744,"x_min":68,"x_max":667,"o":"m 488 523 q 406 540 451 540 q 264 481 323 540 q 205 339 205 422 q 264 197 205 256 q 406 138 323 138 q 548 196 489 138 q 549 197 549 197 q 597 217 569 217 q 646 197 626 217 q 667 149 667 177 q 646 100 667 120 q 645 98 646 99 q 406 0 547 0 q 167 99 266 0 q 68 338 68 198 q 167 578 68 479 q 406 677 266 677 q 645 578 547 677 l 644 578 q 645 577 644 577 q 665 529 665 557 q 645 481 665 501 l 451 289 q 402 269 431 269 q 353 289 373 269 q 333 338 333 309 q 353 387 333 367 l 488 523 m 368 784 l 315 732 q 267 711 295 711 q 218 732 237 711 q 197 780 197 752 l 197 781 q 218 829 197 809 l 318 930 q 367 951 338 950 q 391 947 380 951 q 417 930 406 941 l 517 829 q 538 781 538 809 q 517 732 538 751 q 469 711 497 711 l 469 711 q 420 732 440 711 l 368 784 z "},"ë":{"ha":744,"x_min":68,"x_max":667,"o":"m 488 523 q 406 540 451 540 q 264 481 323 540 q 205 339 205 422 q 264 197 205 256 q 406 138 323 138 q 548 196 489 138 q 549 197 549 197 q 597 217 569 217 q 646 197 626 217 q 667 149 667 177 q 646 100 667 120 q 645 98 646 99 q 406 0 547 0 q 167 99 266 0 q 68 338 68 198 q 167 578 68 479 q 406 677 266 677 q 645 578 547 677 l 644 578 q 645 577 644 577 q 665 529 665 557 q 645 481 665 501 l 451 289 q 402 269 431 269 q 353 289 373 269 q 333 338 333 309 q 353 387 333 367 l 488 523 m 266 882 q 314 862 294 882 q 334 814 334 842 q 314 766 334 786 q 266 746 294 746 q 218 766 238 746 q 198 814 198 786 q 218 862 198 842 q 266 882 238 882 m 469 882 q 517 862 497 882 q 537 814 537 842 q 517 766 537 786 q 469 746 497 746 q 421 766 441 746 q 401 814 401 786 q 421 862 401 842 q 469 882 441 882 z "},"ì":{"ha":272,"x_min":-77,"x_max":244,"o":"m 137 0 q 88 20 109 0 q 68 69 68 41 l 68 612 q 88 661 68 640 q 137 681 109 681 q 186 661 165 681 q 206 612 206 640 l 206 69 q 186 20 206 41 q 137 0 165 0 m -42 813 q -75 855 -67 827 q -77 874 -77 865 q -68 907 -77 891 q -26 940 -53 932 q -7 942 -16 942 q 27 932 10 942 l 209 827 q 241 786 234 813 q 244 767 244 777 q 235 733 244 749 q 193 701 220 709 q 174 699 183 699 q 140 708 156 699 l -42 813 z "},"í":{"ha":272,"x_min":30,"x_max":351,"o":"m 137 0 q 88 20 109 0 q 68 69 68 41 l 68 612 q 88 661 68 640 q 137 681 109 681 q 186 661 165 681 q 206 612 206 640 l 206 69 q 186 20 206 41 q 137 0 165 0 m 134 708 q 100 699 118 699 q 81 701 91 699 q 39 733 54 709 q 30 767 30 749 q 33 786 30 777 q 65 827 40 813 l 247 932 q 281 942 264 942 q 300 940 290 942 q 342 907 327 932 q 351 874 351 891 q 349 855 351 865 q 316 813 341 827 l 134 708 z "},"î":{"ha":272,"x_min":-33,"x_max":308,"o":"m 138 0 q 89 20 109 0 q 68 69 68 41 l 68 612 q 89 661 68 640 q 138 681 109 681 q 186 661 166 681 q 207 612 207 640 l 207 69 q 186 20 207 41 q 138 0 166 0 m 138 784 l 85 732 q 37 711 65 711 q -12 732 7 711 q -33 780 -33 752 l -33 781 q -12 829 -33 809 l 88 930 q 137 951 109 950 q 161 947 150 951 q 187 930 176 941 l 288 829 q 308 781 308 809 q 288 732 308 751 q 239 711 267 711 l 239 711 q 190 732 210 711 l 138 784 z "},"ï":{"ha":272,"x_min":-33,"x_max":307,"o":"m 137 0 q 88 20 109 0 q 68 69 68 41 l 68 612 q 88 661 68 640 q 137 681 109 681 q 186 661 165 681 q 206 612 206 640 l 206 69 q 186 20 206 41 q 137 0 165 0 m 35 882 q 83 862 63 882 q 103 814 103 842 q 83 766 103 786 q 35 746 63 746 q -13 766 7 746 q -33 814 -33 786 q -13 862 -33 842 q 35 882 7 882 m 239 882 q 287 862 267 882 q 307 814 307 842 q 287 766 307 786 q 239 746 267 746 q 191 766 211 746 q 171 814 171 786 q 191 862 171 842 q 239 882 211 882 z "},"ð":{"ha":815,"x_min":68,"x_max":678,"o":"m 373 475 q 253 425 302 475 q 203 305 203 376 q 253 185 203 235 q 373 136 302 136 q 493 185 443 136 q 543 305 543 235 q 493 425 543 376 q 373 475 443 475 m 637 460 q 678 305 678 391 q 589 90 678 179 q 373 0 499 0 q 157 90 246 0 q 68 305 68 179 q 157 521 68 431 q 367 610 244 608 l 298 709 l 243 671 q 204 658 225 658 q 192 659 198 658 q 147 688 163 664 q 134 726 134 705 q 136 739 134 733 q 164 784 140 768 l 218 822 l 163 901 q 151 940 151 920 q 152 954 151 947 q 180 998 157 981 q 219 1010 198 1010 q 232 1009 225 1010 q 276 981 260 1004 l 332 901 l 386 939 q 425 952 404 952 q 438 951 431 952 q 482 922 466 946 q 495 884 495 905 q 494 871 495 877 q 465 826 489 842 l 411 788 l 627 481 q 637 460 633 471 z "},"ñ":{"ha":815,"x_min":68,"x_max":747,"o":"m 413 678 q 648 578 556 670 q 747 342 746 480 l 747 80 q 727 20 747 41 q 678 0 707 0 q 629 20 650 0 q 609 79 609 41 l 609 340 q 610 353 609 347 q 551 481 606 427 q 409 540 492 540 l 406 540 q 264 481 323 540 q 205 353 210 427 q 206 340 206 347 l 206 79 q 186 20 206 41 q 137 0 165 0 q 88 20 109 0 q 68 80 68 41 l 68 342 q 167 578 69 480 q 402 678 259 670 l 413 678 m 526 814 q 541 850 526 835 q 577 865 556 865 q 613 850 598 865 q 628 814 628 835 q 588 718 628 758 q 492 678 549 678 q 396 718 436 678 q 357 814 357 758 q 347 838 357 827 q 323 848 337 848 q 299 838 309 848 q 289 814 289 827 q 274 778 289 793 q 238 763 259 763 q 202 778 217 763 q 187 814 187 793 q 227 910 187 870 q 323 949 267 949 q 419 910 379 949 q 458 814 458 870 q 468 790 458 800 q 492 780 478 780 q 516 790 507 780 q 526 814 526 800 z "},"ò":{"ha":815,"x_min":68,"x_max":745,"o":"m 406 677 q 646 578 547 677 q 745 338 745 479 q 646 99 745 198 q 406 0 547 0 q 167 99 266 0 q 68 338 68 198 q 167 578 68 479 q 406 677 266 677 m 406 540 q 264 481 323 540 q 205 339 205 422 q 264 197 205 256 q 406 138 323 138 q 548 197 490 138 q 607 339 607 256 q 548 481 607 422 q 406 540 490 540 m 227 813 q 195 855 202 827 q 192 874 192 865 q 201 907 192 891 q 243 940 216 932 q 262 942 253 942 q 296 932 279 942 l 478 827 q 511 786 503 813 q 513 767 513 777 q 504 733 513 749 q 462 701 490 709 q 443 699 452 699 q 409 708 425 699 l 227 813 z "},"ó":{"ha":815,"x_min":68,"x_max":745,"o":"m 406 677 q 646 578 547 677 q 745 338 745 479 q 646 99 745 198 q 406 0 547 0 q 167 99 266 0 q 68 338 68 198 q 167 578 68 479 q 406 677 266 677 m 406 540 q 264 481 323 540 q 205 339 205 422 q 264 197 205 256 q 406 138 323 138 q 548 197 490 138 q 607 339 607 256 q 548 481 607 422 q 406 540 490 540 m 404 708 q 370 699 387 699 q 351 701 360 699 q 309 733 323 709 q 299 767 299 749 q 302 786 299 777 q 334 827 309 813 l 516 932 q 551 942 533 942 q 569 940 559 942 q 611 907 596 932 q 621 874 621 891 q 618 855 621 865 q 585 813 610 827 l 404 708 z "},"ô":{"ha":815,"x_min":68,"x_max":745,"o":"m 406 677 q 646 578 547 677 q 745 338 745 479 q 646 99 745 198 q 406 0 547 0 q 167 99 266 0 q 68 338 68 198 q 167 578 68 479 q 406 677 266 677 m 406 540 q 264 481 323 540 q 205 339 205 422 q 264 197 205 256 q 406 138 323 138 q 548 197 490 138 q 607 339 607 256 q 548 481 607 422 q 406 540 490 540 m 407 784 l 355 732 q 306 711 334 711 q 257 732 277 711 q 236 780 236 752 l 237 781 q 257 829 237 809 l 357 930 q 406 951 378 950 q 430 947 419 951 q 456 930 445 941 l 557 829 q 577 781 577 809 q 557 732 577 751 q 509 711 536 711 l 508 711 q 459 732 479 711 l 407 784 z "},"õ":{"ha":815,"x_min":68,"x_max":745,"o":"m 406 677 q 646 578 547 677 q 745 338 745 479 q 646 99 745 198 q 406 0 547 0 q 167 99 266 0 q 68 338 68 198 q 167 578 68 479 q 406 677 266 677 m 406 540 q 264 481 323 540 q 205 339 205 422 q 264 197 205 256 q 406 138 323 138 q 548 197 490 138 q 607 339 607 256 q 548 481 607 422 q 406 540 490 540 m 525 814 q 540 850 525 835 q 576 865 555 865 q 612 850 597 865 q 627 814 627 835 q 587 718 627 758 q 491 678 547 678 q 395 718 435 678 q 355 814 355 758 q 346 838 355 827 q 321 848 336 848 q 297 838 307 848 q 288 814 288 827 q 273 778 288 793 q 237 763 258 763 q 201 778 216 763 q 186 814 186 793 q 225 910 186 870 q 321 949 265 949 q 417 910 378 949 q 457 814 457 870 q 467 790 457 800 q 491 780 477 780 q 515 790 505 780 q 525 814 525 800 z "},"ö":{"ha":815,"x_min":68,"x_max":745,"o":"m 406 677 q 646 578 547 677 q 745 338 745 479 q 646 99 745 198 q 406 0 547 0 q 167 99 266 0 q 68 338 68 198 q 167 578 68 479 q 406 677 266 677 m 406 540 q 264 481 323 540 q 205 339 205 422 q 264 197 205 256 q 406 138 323 138 q 548 197 490 138 q 607 339 607 256 q 548 481 607 422 q 406 540 490 540 m 304 882 q 352 862 332 882 q 372 814 372 842 q 352 766 372 786 q 304 746 332 746 q 257 766 277 746 q 237 814 237 786 q 257 862 237 842 q 304 882 277 882 m 508 882 q 556 862 536 882 q 576 814 576 842 q 556 766 576 786 q 508 746 536 746 q 460 766 480 746 q 440 814 440 786 q 460 862 440 842 q 508 882 480 882 z "},"÷":{"ha":543,"x_min":66,"x_max":475,"o":"m 135 403 q 86 423 106 403 q 66 472 66 444 q 86 521 66 500 q 135 541 106 541 l 406 541 q 455 521 435 541 q 475 472 475 500 q 455 423 475 444 q 406 403 435 403 l 135 403 m 321 320 q 332 310 321 320 q 342 271 342 300 q 321 222 342 243 q 273 202 301 202 q 224 222 244 202 q 203 271 203 243 q 224 320 203 300 q 273 340 244 340 q 321 320 301 340 m 321 727 q 332 717 321 727 q 342 678 342 707 q 321 629 342 650 q 273 609 301 609 q 224 629 244 609 q 203 678 203 650 q 224 727 203 707 q 273 747 244 747 q 321 727 301 747 z "},"ø":{"ha":815,"x_min":68,"x_max":747,"o":"m 446 536 q 406 540 427 540 q 264 481 323 540 q 205 339 205 422 q 255 205 205 262 l 446 536 m 377 140 q 406 138 391 138 q 548 197 490 138 q 607 339 607 256 q 564 463 607 410 l 377 140 m 635 587 q 646 578 641 583 q 745 338 745 479 q 646 99 745 198 q 406 0 547 0 q 305 14 353 0 l 199 -170 q 157 -201 184 -194 q 138 -204 147 -204 q 104 -195 120 -204 q 72 -153 79 -180 q 69 -134 69 -143 q 79 -100 69 -117 l 184 83 q 167 99 176 90 q 68 338 68 198 q 167 578 68 479 q 406 677 266 677 q 517 659 465 677 l 618 833 q 660 866 632 859 q 679 869 669 869 q 712 859 696 869 q 745 817 737 844 q 747 798 747 808 q 738 764 747 781 l 635 587 z "},"ù":{"ha":815,"x_min":68,"x_max":747,"o":"m 402 0 q 167 100 259 8 q 68 336 69 198 l 68 598 q 88 658 68 637 q 137 678 109 678 q 186 658 165 678 q 206 600 206 637 l 206 338 q 205 326 206 332 q 264 197 210 251 q 406 138 323 138 l 409 138 q 551 197 492 138 q 610 326 606 251 q 609 338 609 332 l 609 600 q 629 658 609 637 q 678 678 650 678 q 727 658 707 678 q 747 598 747 637 l 747 336 q 648 100 746 198 q 413 0 556 8 l 402 0 m 229 813 q 196 855 203 827 q 193 874 193 865 q 203 907 193 891 q 245 940 218 932 q 263 942 254 942 q 298 932 281 942 l 479 827 q 512 786 505 813 q 515 767 515 777 q 505 733 515 749 q 463 701 491 709 q 444 699 454 699 q 410 708 427 699 l 229 813 z "},"ú":{"ha":815,"x_min":68,"x_max":747,"o":"m 402 0 q 167 100 259 8 q 68 336 69 198 l 68 598 q 88 658 68 637 q 137 678 109 678 q 186 658 165 678 q 206 600 206 637 l 206 338 q 205 326 206 332 q 264 197 210 251 q 406 138 323 138 l 409 138 q 551 197 492 138 q 610 326 606 251 q 609 338 609 332 l 609 600 q 629 658 609 637 q 678 678 650 678 q 727 658 707 678 q 747 598 747 637 l 747 336 q 648 100 746 198 q 413 0 556 8 l 402 0 m 405 708 q 371 699 389 699 q 352 701 361 699 q 310 733 324 709 q 300 767 300 749 q 303 786 300 777 q 336 827 311 813 l 517 932 q 552 942 534 942 q 570 940 561 942 q 612 907 597 932 q 622 874 622 891 q 619 855 622 865 q 587 813 612 827 l 405 708 z "},"û":{"ha":815,"x_min":68,"x_max":747,"o":"m 402 0 q 167 100 259 8 q 68 336 69 198 l 68 598 q 88 658 68 637 q 137 678 109 678 q 186 658 165 678 q 206 600 206 637 l 206 338 q 205 326 206 332 q 264 197 210 251 q 406 138 323 138 l 409 138 q 551 197 492 138 q 610 326 606 251 q 609 338 609 332 l 609 600 q 629 658 609 637 q 678 678 650 678 q 727 658 707 678 q 747 598 747 637 l 747 336 q 648 100 746 198 q 413 0 556 8 l 402 0 m 408 784 l 356 732 q 307 711 336 711 q 258 732 278 711 q 237 780 237 752 l 238 781 q 258 829 238 809 l 359 930 q 408 951 379 950 q 431 947 420 951 q 458 930 446 941 l 558 829 q 578 781 578 809 q 558 732 578 751 q 510 711 538 711 l 509 711 q 460 732 481 711 l 408 784 z "},"ü":{"ha":815,"x_min":68,"x_max":747,"o":"m 402 0 q 167 100 259 8 q 68 336 69 198 l 68 598 q 88 658 68 637 q 137 678 109 678 q 186 658 165 678 q 206 600 206 637 l 206 338 q 205 326 206 332 q 264 197 210 251 q 406 138 323 138 l 409 138 q 551 197 492 138 q 610 326 606 251 q 609 338 609 332 l 609 600 q 629 658 609 637 q 678 678 650 678 q 727 658 707 678 q 747 598 747 637 l 747 336 q 648 100 746 198 q 413 0 556 8 l 402 0 m 306 882 q 354 862 334 882 q 374 814 374 842 q 354 766 374 786 q 306 746 334 746 q 258 766 278 746 q 238 814 238 786 q 258 862 238 842 q 306 882 278 882 m 509 882 q 557 862 537 882 q 577 814 577 842 q 557 766 577 786 q 509 746 537 746 q 461 766 481 746 q 441 814 441 786 q 461 862 441 842 q 509 882 481 882 z "},"ý":{"ha":815,"x_min":68,"x_max":746,"o":"m 76 578 q 68 610 68 593 q 87 659 68 639 q 136 678 107 678 q 184 659 163 678 q 199 633 195 648 l 407 219 l 614 633 q 630 659 618 647 q 678 678 650 678 q 726 659 706 678 q 746 610 746 639 q 739 581 746 594 l 338 -226 q 319 -251 331 -239 q 271 -271 299 -271 q 223 -251 243 -271 q 203 -203 203 -231 q 212 -164 203 -182 l 331 68 l 76 578 m 404 708 q 370 699 388 699 q 351 701 361 699 q 309 733 323 709 q 300 767 300 749 q 302 786 300 777 q 335 827 310 813 l 517 932 q 551 942 534 942 q 570 940 560 942 q 612 907 597 932 q 621 874 621 891 q 618 855 621 865 q 586 813 611 827 l 404 708 z "},"þ":{"ha":815,"x_min":68,"x_max":745,"o":"m 206 361 l 206 315 q 264 197 214 247 q 406 138 323 138 q 548 197 490 138 q 607 339 607 256 q 548 481 607 422 q 406 540 490 540 q 264 481 323 540 q 206 361 213 431 m 206 612 q 406 677 293 677 q 646 578 547 677 q 745 338 745 479 q 646 99 745 198 q 406 0 547 0 q 206 65 293 0 l 206 -202 q 186 -251 206 -231 q 137 -271 165 -271 q 88 -251 109 -271 q 68 -202 68 -231 l 68 808 q 88 857 68 837 q 137 878 109 878 q 186 857 165 878 q 206 808 206 837 l 206 612 z "},"ÿ":{"ha":815,"x_min":68,"x_max":746,"o":"m 76 578 q 68 610 68 593 q 87 659 68 639 q 136 678 107 678 q 184 659 163 678 q 199 633 195 648 l 407 219 l 614 633 q 630 659 618 647 q 678 678 650 678 q 726 659 706 678 q 746 610 746 639 q 739 581 746 594 l 338 -226 q 319 -251 331 -239 q 271 -271 299 -271 q 223 -251 243 -271 q 203 -203 203 -231 q 212 -164 203 -182 l 331 68 l 76 578 m 305 882 q 353 862 333 882 q 373 814 373 842 q 353 766 373 786 q 305 746 333 746 q 257 766 277 746 q 237 814 237 786 q 257 862 237 842 q 305 882 277 882 m 509 882 q 556 862 536 882 q 576 814 576 842 q 556 766 576 786 q 509 746 536 746 q 461 766 481 746 q 441 814 441 786 q 461 862 441 842 q 509 882 481 882 z "},"ı":{"ha":272,"x_min":68,"x_max":206,"o":"m 137 0 q 88 20 109 0 q 68 69 68 41 l 68 612 q 88 661 68 640 q 137 681 109 681 q 186 661 165 681 q 206 612 206 640 l 206 69 q 186 20 206 41 q 137 0 165 0 z "},"ˆ":{"ha":472,"x_min":67,"x_max":408,"o":"m 238 784 l 186 732 q 137 711 165 711 q 88 732 108 711 q 67 780 67 752 l 68 781 q 88 829 68 809 l 189 930 q 237 951 209 950 q 261 947 250 951 q 288 930 276 941 l 388 829 q 408 781 408 809 q 388 732 408 751 q 340 711 368 711 l 339 711 q 290 732 311 711 l 238 784 z "},"ˇ":{"ha":477,"x_min":67,"x_max":408,"o":"m 290 930 q 339 950 311 950 l 340 951 q 388 930 368 951 q 408 881 408 910 q 388 832 408 852 l 288 732 q 261 715 276 720 q 237 711 250 711 q 189 732 209 711 l 88 832 q 68 881 68 852 l 67 882 q 88 930 67 909 q 137 950 108 950 q 186 930 165 950 l 238 878 l 290 930 z "},"ˉ":{"ha":543,"x_min":68,"x_max":477,"o":"m 68 898 q 88 947 68 926 q 137 967 109 967 l 408 967 q 457 947 437 967 q 477 898 477 926 q 457 849 477 869 q 408 829 437 829 l 137 829 q 88 849 109 829 q 68 898 68 869 z "},"˘":{"ha":472,"x_min":68,"x_max":407,"o":"m 136 949 q 183 930 163 949 q 203 882 203 910 q 213 858 203 867 q 237 848 223 848 q 261 858 252 848 q 271 882 271 867 q 291 930 271 910 q 339 949 311 949 q 387 930 367 949 q 407 882 407 910 q 357 762 407 811 q 237 712 307 712 q 117 762 167 712 q 68 882 68 811 q 87 930 68 910 q 136 949 107 949 z "},"˙":{"ha":296,"x_min":68,"x_max":237,"o":"m 153 916 q 213 891 188 916 q 237 831 237 866 q 213 771 237 795 q 153 746 188 746 q 93 771 117 746 q 68 831 68 795 q 93 891 68 866 q 153 916 117 916 z "},"˚":{"ha":405,"x_min":68,"x_max":336,"o":"m 202 964 q 297 924 258 964 q 336 829 336 885 q 297 734 336 774 q 202 695 258 695 q 107 734 146 695 q 68 829 68 774 q 107 924 68 885 q 202 964 146 964 m 201 885 q 162 869 178 885 q 146 829 146 852 q 162 790 146 806 q 201 773 178 773 q 241 790 225 773 q 258 829 258 806 q 241 869 258 852 q 201 885 225 885 z "},"˛":{"ha":353,"x_min":68,"x_max":288,"o":"m 131 -13 q 136 -1 131 -13 q 156 26 141 11 q 193 41 172 41 q 230 26 215 41 q 245 -11 245 11 q 213 -82 245 -43 q 176 -126 182 -120 q 170 -144 170 -133 q 177 -162 170 -155 q 195 -169 184 -169 l 237 -169 q 274 -184 259 -169 q 288 -220 288 -199 q 274 -256 288 -241 q 237 -271 259 -271 l 195 -271 q 105 -234 142 -271 q 68 -144 68 -197 q 104 -54 68 -92 q 131 -13 121 -37 z "},"˜":{"ha":601,"x_min":68,"x_max":509,"o":"m 407 814 q 422 850 407 835 q 458 865 437 865 q 494 850 479 865 q 509 814 509 835 q 469 718 509 758 q 373 678 429 678 q 277 718 317 678 q 237 814 237 758 q 228 838 237 827 q 203 848 218 848 q 179 838 189 848 q 170 814 170 827 q 155 778 170 793 q 119 763 140 763 q 83 778 98 763 q 68 814 68 793 q 107 910 68 870 q 203 949 147 949 q 299 910 260 949 q 339 814 339 870 q 349 790 339 800 q 373 780 359 780 q 397 790 387 780 q 407 814 407 800 z "},"˝":{"ha":694,"x_min":0,"x_max":643,"o":"m 104 708 q 71 699 88 699 q 52 701 61 699 q 9 733 24 709 q 0 767 0 749 q 3 786 0 777 q 35 827 10 813 l 217 932 q 252 942 234 942 q 270 940 260 942 q 312 907 297 932 q 321 874 321 891 q 319 855 321 865 q 286 813 311 827 l 104 708 m 426 708 q 392 699 410 699 q 373 701 382 699 q 331 733 345 709 q 321 767 321 749 q 324 786 321 777 q 357 827 332 813 l 538 932 q 573 942 555 942 q 591 940 582 942 q 633 907 618 932 q 643 874 643 891 q 640 855 643 865 q 608 813 633 827 l 426 708 z "},"–":{"ha":839,"x_min":68,"x_max":776,"o":"m 88 389 q 98 399 88 389 q 137 410 109 410 l 707 410 q 755 389 735 410 q 776 340 776 369 q 755 292 776 312 q 707 271 735 271 l 137 271 q 88 292 109 271 q 68 340 68 312 q 88 389 68 369 z "},"—":{"ha":1358,"x_min":65,"x_max":1282,"o":"m 2241 72 q 2220 23 2241 43 q 2171 3 2200 3 l 1093 3 q 1044 23 1065 3 q 1024 72 1024 43 q 1044 121 1024 100 q 1093 141 1065 141 l 2171 141 q 2220 121 2200 141 q 2241 72 2241 100 z "},"‘":{"ha":338,"x_min":68,"x_max":271,"o":"m 78 846 q 68 882 68 861 q 87 930 68 910 q 136 949 107 949 q 184 930 163 949 q 200 903 195 918 l 262 781 q 271 746 271 765 q 251 698 271 718 q 203 678 231 678 q 155 699 175 678 q 140 722 144 709 l 78 846 z "},"’":{"ha":378,"x_min":68,"x_max":271,"o":"m 261 846 q 271 882 271 861 q 252 930 271 910 q 203 949 232 949 q 155 930 176 949 q 139 903 144 918 l 77 781 q 68 746 68 765 q 88 698 68 718 q 136 678 108 678 q 184 699 164 678 q 199 722 195 709 l 261 846 z "},"‚":{"ha":378,"x_min":68,"x_max":271,"o":"m 261 32 q 271 68 271 47 q 252 116 271 96 q 203 136 232 136 q 155 116 176 136 q 139 90 144 104 l 77 -33 q 68 -68 68 -49 q 88 -116 68 -96 q 136 -136 108 -136 q 184 -115 164 -136 q 199 -92 195 -105 l 261 32 z "},"“":{"ha":623,"x_min":68,"x_max":556,"o":"m 78 846 q 68 882 68 861 q 87 930 68 910 q 136 949 107 949 q 184 930 163 949 q 200 903 195 918 l 262 781 q 271 746 271 765 q 251 698 271 718 q 203 678 231 678 q 155 699 175 678 q 140 722 144 709 l 78 846 m 363 846 q 353 882 353 861 q 372 930 353 910 q 420 949 392 949 q 469 930 448 949 q 485 903 480 918 l 547 781 q 556 746 556 765 q 536 698 556 718 q 488 678 516 678 q 440 699 460 678 q 425 722 429 709 l 363 846 z "},"”":{"ha":663,"x_min":68,"x_max":556,"o":"m 261 846 q 271 882 271 861 q 252 930 271 910 q 203 949 232 949 q 155 930 176 949 q 139 903 144 918 l 77 781 q 68 746 68 765 q 88 698 68 718 q 136 678 108 678 q 184 699 164 678 q 199 722 195 709 l 261 846 m 546 846 q 556 882 556 861 q 536 930 556 910 q 488 949 517 949 q 440 930 460 949 q 424 903 429 918 l 361 781 q 353 746 353 765 q 373 698 353 718 q 420 678 393 678 q 469 699 449 678 q 484 722 479 709 l 546 846 z "},"„":{"ha":663,"x_min":68,"x_max":556,"o":"m 261 32 q 271 68 271 47 q 252 116 271 96 q 203 136 232 136 q 155 116 176 136 q 139 90 144 104 l 77 -33 q 68 -68 68 -49 q 88 -116 68 -96 q 136 -136 108 -136 q 184 -115 164 -136 q 199 -92 195 -105 l 261 32 m 546 32 q 556 68 556 47 q 536 116 556 96 q 488 136 517 136 q 440 116 460 136 q 424 90 429 104 l 361 -33 q 353 -68 353 -49 q 373 -116 353 -96 q 420 -136 393 -136 q 469 -115 449 -136 q 484 -92 479 -105 l 546 32 z "},"†":{"ha":688,"x_min":68,"x_max":613,"o":"m 271 814 l 271 1019 q 292 1067 271 1047 q 340 1088 312 1088 q 389 1067 369 1088 q 410 1019 410 1047 l 410 814 l 544 814 q 593 793 572 814 q 613 745 613 773 q 593 696 613 716 q 544 675 572 675 l 410 675 l 410 -60 q 389 -109 410 -88 q 340 -129 369 -129 q 292 -109 312 -129 q 271 -60 271 -88 l 271 675 l 137 675 q 88 696 109 675 q 68 745 68 716 q 88 793 68 773 q 137 814 109 814 l 271 814 z "},"‡":{"ha":688,"x_min":68,"x_max":613,"o":"m 271 271 l 271 675 l 137 675 q 88 696 109 675 q 68 745 68 716 q 88 793 68 773 q 137 814 109 814 l 271 814 l 271 1019 q 292 1067 271 1047 q 340 1088 312 1088 q 389 1067 369 1088 q 410 1019 410 1047 l 410 814 l 544 814 q 593 793 572 814 q 613 745 613 773 q 593 696 613 716 q 544 675 572 675 l 410 675 l 410 271 l 544 271 q 593 251 572 271 q 613 202 613 231 q 593 153 613 174 q 544 133 572 133 l 410 133 l 410 -60 q 389 -109 410 -88 q 340 -129 369 -129 q 292 -109 312 -129 q 271 -60 271 -88 l 271 133 l 137 133 q 88 153 109 133 q 68 202 68 174 q 88 251 68 231 q 137 271 109 271 l 271 271 z "},"•":{"ha":405,"x_min":68,"x_max":339,"o":"m 203 543 q 299 503 260 543 q 339 407 339 463 q 299 311 339 351 q 203 271 260 271 q 107 311 147 271 q 68 407 68 351 q 107 503 68 463 q 203 543 147 543 z "},"…":{"ha":815,"x_min":68,"x_max":746,"o":"m 137 138 q 186 118 165 138 q 206 69 206 98 q 186 20 206 41 q 137 0 165 0 q 88 20 109 0 q 68 69 68 41 q 88 118 68 98 q 137 138 109 138 m 404 138 q 452 118 432 138 q 473 69 473 98 q 452 20 473 41 q 404 0 432 0 q 355 20 375 0 q 334 69 334 41 q 355 118 334 98 q 404 138 375 138 m 677 138 q 726 118 705 138 q 746 69 746 98 q 726 20 746 41 q 677 0 705 0 q 628 20 648 0 q 608 69 608 41 q 628 118 608 98 q 677 138 648 138 z "},"‹":{"ha":405,"x_min":68,"x_max":339,"o":"m 323 635 q 339 678 339 654 q 319 726 339 707 q 271 746 300 746 q 223 726 243 746 q 215 716 218 722 l 214 716 l 79 512 q 68 475 68 496 q 79 437 68 454 l 77 437 l 213 233 l 214 234 q 223 224 218 229 q 271 203 243 203 q 319 223 300 203 q 339 271 339 243 q 328 310 339 293 l 218 475 l 323 635 z "},"›":{"ha":405,"x_min":68,"x_max":339,"o":"m 83 635 q 68 678 68 654 q 87 726 68 707 q 136 746 107 746 q 184 726 163 746 q 192 716 189 722 l 193 716 l 328 512 q 339 475 339 496 q 328 437 339 454 l 330 437 l 194 233 l 193 234 q 184 224 189 229 q 136 203 163 203 q 87 223 107 203 q 68 271 68 243 q 79 310 68 293 l 189 475 l 83 635 z "},"⁄":{"ha":1025,"x_min":68,"x_max":968,"o":"m 968 861 q 948 812 968 832 l 186 50 q 137 29 165 29 q 88 50 108 29 q 68 98 68 69 q 88 147 68 127 l 850 909 q 900 930 871 930 q 948 909 928 930 q 968 861 968 890 z "},"₣":{"ha":949,"x_min":68,"x_max":871,"o":"m 197 412 l 197 903 q 217 952 197 932 q 266 972 237 972 l 802 972 q 850 952 830 972 q 871 903 871 932 q 850 854 871 875 q 802 834 830 834 l 335 834 l 335 681 l 537 681 q 586 661 566 681 q 606 612 606 640 q 586 563 606 583 q 537 543 566 543 l 335 543 l 335 412 l 408 412 q 457 392 437 412 q 477 343 477 372 q 457 294 477 315 q 408 274 437 274 l 335 274 l 335 69 q 315 20 335 41 q 266 0 294 0 q 217 20 237 0 q 197 69 197 41 l 197 274 l 137 274 q 88 294 109 274 q 68 343 68 315 q 88 392 68 372 q 137 412 109 412 l 197 412 z "},"₤":{"ha":688,"x_min":20,"x_max":646,"o":"m 312 271 q 293 207 305 239 q 429 144 371 199 q 477 133 451 133 q 549 162 519 133 l 551 160 q 578 165 564 165 q 626 145 606 165 q 646 98 646 125 q 641 71 646 83 l 645 66 q 626 50 636 58 q 612 38 619 43 q 477 -3 553 -3 q 314 62 382 -3 q 268 73 293 73 q 205 52 233 73 q 198 41 202 46 q 184 20 193 30 q 136 0 163 0 q 87 20 107 0 q 68 68 68 40 q 81 109 68 92 l 79 111 q 100 137 91 124 l 100 138 q 106 144 103 142 q 172 271 152 208 l 113 271 q 64 292 85 271 q 44 340 44 312 q 64 389 44 369 q 113 410 85 410 l 184 410 q 174 458 181 437 l 90 458 q 41 478 61 458 q 20 527 20 498 q 41 576 20 555 q 90 596 61 596 l 94 596 q 79 684 79 637 q 159 876 79 797 q 351 956 238 956 q 543 876 463 956 q 563 854 553 865 l 559 851 q 576 807 576 833 q 556 759 576 779 q 508 739 536 739 q 460 760 479 739 q 444 783 449 770 q 351 820 405 820 q 255 780 294 820 q 215 684 215 741 q 248 596 215 646 l 361 596 q 410 576 389 596 q 430 527 430 555 q 410 478 430 498 q 361 458 389 458 l 313 458 q 320 410 318 435 l 385 410 q 433 389 413 410 q 454 340 454 369 q 433 292 454 312 q 385 271 413 271 l 312 271 z "},"₧":{"ha":1382,"x_min":68,"x_max":1314,"o":"m 380 837 l 193 837 l 193 543 l 380 543 q 474 586 435 543 q 513 690 513 629 q 474 794 513 751 q 380 837 435 837 m 598 541 q 561 490 583 514 q 380 407 486 407 l 193 407 l 193 69 q 174 20 193 41 q 130 0 156 0 q 86 20 104 0 q 68 69 68 41 l 68 903 q 86 952 68 932 q 130 972 104 972 l 380 973 q 561 890 486 973 q 635 690 635 808 l 635 680 l 675 680 l 675 808 q 696 857 675 837 q 745 878 716 878 q 793 857 773 878 q 814 808 814 837 l 814 680 l 889 680 q 938 659 918 680 q 956 628 951 646 l 957 629 q 1077 678 1006 678 q 1125 659 1105 678 q 1145 610 1145 639 q 1125 563 1145 583 q 1077 543 1105 543 q 1053 533 1063 543 q 1043 509 1043 523 q 1053 485 1043 494 q 1077 475 1063 475 q 1245 405 1175 475 q 1314 237 1314 336 q 1245 70 1314 139 q 1077 0 1175 0 q 909 70 979 0 q 840 237 840 139 q 860 286 840 266 q 907 305 880 305 q 956 286 936 305 q 975 237 975 266 q 1005 165 975 195 q 1077 136 1035 136 q 1149 165 1119 136 q 1179 237 1179 195 q 1149 309 1179 279 q 1077 339 1119 339 q 957 389 1006 339 q 907 509 907 439 q 911 545 907 528 q 889 541 901 541 l 814 541 l 814 69 q 793 20 814 41 q 745 0 773 0 q 696 20 716 0 q 675 69 675 41 l 675 541 l 598 541 z "},"€":{"ha":815,"x_min":54,"x_max":911,"o":"m 397 272 q 421 241 408 256 q 616 138 507 138 q 795 209 718 138 l 795 208 q 797 210 796 209 q 838 230 814 230 q 893 210 876 230 q 911 161 911 189 q 893 112 911 132 q 892 111 892 111 l 892 110 q 616 0 781 0 q 325 142 446 0 q 244 272 274 202 l 123 272 q 74 292 94 272 q 54 341 54 313 q 74 390 54 370 q 123 410 94 410 l 208 410 q 203 486 203 447 q 206 549 203 518 l 123 549 q 74 569 94 549 q 54 618 54 589 q 74 667 54 646 q 123 687 94 687 l 239 687 q 325 830 269 765 q 616 972 446 972 q 892 863 781 972 l 892 862 q 893 861 892 861 q 911 812 911 840 q 893 763 911 783 q 838 743 876 743 q 797 763 814 743 q 795 764 796 764 l 795 764 q 616 834 718 834 q 421 732 507 834 q 388 687 403 711 l 591 687 q 640 667 619 687 q 660 618 660 646 q 640 569 660 589 q 591 549 619 549 l 338 549 q 334 486 334 519 q 341 410 334 447 l 591 410 q 640 390 619 410 q 660 341 660 370 q 640 292 660 313 q 591 272 619 272 l 397 272 z "},"№":{"ha":1534,"x_min":68,"x_max":1463,"o":"m 206 709 l 206 69 q 186 20 206 41 q 137 0 165 0 q 88 20 109 0 q 68 69 68 41 l 68 903 q 88 952 68 932 q 137 972 109 972 q 186 952 165 972 q 199 935 194 944 l 746 259 l 746 903 q 766 952 746 932 q 815 972 787 972 q 864 952 844 972 q 884 903 884 932 l 884 69 q 864 20 884 41 q 815 0 844 0 q 766 20 787 0 q 761 25 764 23 l 206 709 m 1017 408 q 1037 457 1017 437 q 1086 477 1057 477 l 1389 477 q 1437 457 1417 477 q 1457 408 1457 437 q 1437 359 1457 380 q 1389 339 1417 339 l 1086 339 q 1037 359 1057 339 q 1017 408 1017 380 m 1240 856 q 1170 830 1199 856 q 1141 769 1141 805 q 1170 708 1141 733 q 1240 682 1199 682 q 1310 708 1281 682 q 1339 769 1339 733 q 1310 830 1339 805 q 1240 856 1281 856 m 1398 912 q 1431 883 1398 912 q 1463 768 1463 853 q 1398 625 1463 684 q 1240 566 1333 566 q 1082 625 1147 566 q 1017 768 1017 684 q 1082 912 1017 853 q 1240 972 1147 972 q 1398 912 1333 972 z "},"™":{"ha":1094,"x_min":75,"x_max":1008,"o":"m 340 836 l 340 570 q 319 520 340 540 q 269 501 297 501 q 218 520 240 501 q 197 570 197 540 l 197 836 l 146 836 q 96 855 118 836 q 75 904 75 874 q 96 953 75 934 q 146 972 118 972 l 389 972 q 439 953 418 972 q 461 904 461 934 q 439 855 461 874 q 389 836 418 836 l 340 836 m 642 759 l 642 570 q 621 521 642 541 q 570 502 599 502 q 520 521 542 502 q 498 570 498 541 l 498 904 q 520 953 498 934 q 570 972 542 972 q 617 956 599 972 q 627 947 626 950 l 753 848 l 878 951 l 888 960 q 937 972 910 972 q 987 953 965 972 q 1008 904 1008 934 l 1008 570 q 987 521 1008 541 q 937 502 965 502 q 886 521 908 502 q 865 570 865 541 l 865 760 l 799 709 q 753 692 779 692 q 642 759 726 692 z "},"∂":{"ha":882,"x_min":68,"x_max":819,"o":"m 680 404 l 406 404 q 264 346 323 404 q 205 203 205 287 q 264 61 205 120 q 406 2 323 2 q 545 46 490 2 q 642 191 600 91 q 680 404 672 264 m 682 541 q 604 879 677 737 q 560 945 587 912 q 557 948 559 947 q 553 954 555 951 q 505 973 532 973 q 456 953 476 973 q 437 905 437 933 q 456 858 437 878 l 456 857 q 481 804 481 833 q 461 756 481 777 q 414 736 441 736 q 361 762 385 736 q 301 905 301 821 q 360 1049 301 989 q 505 1109 420 1109 q 648 1049 589 1109 q 690 989 675 1022 q 699 975 696 981 q 819 507 819 781 q 757 125 819 264 q 610 -75 696 -14 q 406 -136 525 -136 q 167 -37 266 -136 q 68 203 68 62 q 167 442 68 343 q 406 541 266 541 l 682 541 z "},"∆":{"ha":1084,"x_min":68,"x_max":1017,"o":"m 136 0 q 87 20 107 0 q 68 68 68 40 q 78 103 68 87 l 480 932 q 494 952 485 943 q 543 972 514 972 q 591 952 570 972 q 604 935 599 944 l 1006 106 q 1017 68 1017 90 q 997 20 1017 40 q 949 0 977 0 l 136 0 m 840 136 l 543 749 l 244 136 l 840 136 z "},"∏":{"ha":815,"x_min":68,"x_max":749,"o":"m 610 834 l 206 834 l 206 69 q 186 20 206 41 q 137 0 165 0 q 88 20 109 0 q 68 69 68 41 l 68 903 q 88 952 68 932 q 137 972 109 972 l 680 972 q 728 952 708 972 q 749 903 749 932 l 749 69 q 728 20 749 41 q 680 0 708 0 q 631 20 651 0 q 610 69 610 41 l 610 834 z "},"∑":{"ha":818,"x_min":68,"x_max":746,"o":"m 82 864 q 68 906 68 882 q 88 955 68 935 q 137 975 109 975 l 677 975 q 726 955 705 975 q 746 906 746 935 q 726 857 746 878 q 677 837 705 837 l 265 837 l 463 547 q 475 509 475 530 q 465 473 475 488 l 259 138 l 677 138 q 726 118 705 138 q 746 69 746 98 q 726 20 746 41 q 677 0 705 0 l 137 0 q 88 20 109 0 q 68 69 68 41 q 85 115 68 96 l 326 507 l 82 864 z "},"−":{"ha":543,"x_min":68,"x_max":477,"o":"m 137 403 q 88 423 108 403 q 68 472 68 444 q 88 521 68 500 q 137 541 108 541 l 408 541 q 457 521 437 541 q 477 472 477 500 q 457 423 477 444 q 408 403 437 403 l 137 403 z "},"√":{"ha":1187,"x_min":68,"x_max":1141,"o":"m 1011 1046 l 1012 1046 q 1025 1065 1017 1056 q 1074 1085 1045 1085 q 1121 1065 1101 1085 q 1141 1017 1141 1045 q 1130 979 1141 996 l 606 -92 q 591 -115 602 -105 q 543 -136 571 -136 q 495 -115 515 -136 q 479 -92 484 -105 l 231 404 l 137 404 q 88 425 108 404 q 68 473 68 445 q 88 522 68 502 q 137 543 108 543 l 271 543 q 319 523 300 543 q 330 509 326 516 l 331 509 l 543 85 l 1011 1046 z "},"∞":{"ha":1087,"x_min":68,"x_max":1017,"o":"m 577 509 q 780 407 743 407 q 852 437 822 407 q 882 509 882 467 q 852 581 882 551 q 780 610 822 610 q 577 509 743 610 m 302 509 q 237 543 245 543 q 213 532 223 543 q 203 509 203 522 q 213 485 203 494 q 237 475 223 475 q 302 509 244 475 m 439 424 q 237 339 293 339 q 117 389 167 339 q 68 509 68 438 q 117 628 68 578 q 237 678 167 678 q 439 593 293 678 q 467 610 452 602 q 780 746 682 746 q 948 676 878 746 q 1017 509 1017 607 q 948 341 1017 410 q 780 271 878 271 q 467 407 682 271 q 439 424 452 416 z "},"∫":{"ha":472,"x_min":-136,"x_max":407,"o":"m 407 905 q 387 857 407 876 q 339 837 367 837 q 291 857 311 837 q 271 905 271 876 q 261 928 271 918 q 237 939 251 939 q 214 928 223 939 q 205 916 208 922 q 206 903 206 909 l 206 1 q 202 -22 206 -12 q 154 -120 195 -79 q 34 -170 104 -170 q -86 -120 -37 -170 q -136 0 -136 -71 q -116 48 -136 28 q -68 68 -96 68 q -20 48 -40 68 q 0 0 0 28 q 10 -24 0 -14 q 34 -34 20 -34 q 58 -24 47 -34 q 68 0 68 -14 l 68 905 q 117 1024 68 975 q 237 1074 167 1074 q 357 1024 307 1074 q 407 905 407 975 z "},"≈":{"ha":663,"x_min":51,"x_max":602,"o":"m 475 517 q 493 562 475 543 q 538 580 512 580 q 583 562 565 580 q 602 517 602 543 q 552 397 602 446 q 432 347 503 347 q 312 397 362 347 q 263 517 263 446 q 250 546 263 534 q 220 559 238 559 q 190 546 203 559 q 178 517 178 534 q 159 472 178 490 q 114 453 141 453 q 70 472 88 453 q 51 517 51 490 q 100 637 51 587 q 220 686 150 686 q 340 637 291 686 q 390 517 390 587 q 402 487 390 500 q 432 474 415 474 q 462 487 450 474 q 475 517 475 500 m 475 178 q 493 223 475 204 q 538 241 512 241 q 583 223 565 241 q 602 178 602 204 q 552 58 602 107 q 432 8 503 8 q 312 58 362 8 q 263 178 263 107 q 250 207 263 195 q 220 220 238 220 q 190 207 203 220 q 178 178 178 195 q 159 133 178 151 q 114 114 141 114 q 70 133 88 114 q 51 178 51 151 q 100 298 51 248 q 220 347 150 347 q 340 298 291 347 q 390 178 390 248 q 402 148 390 161 q 432 135 415 135 q 462 148 450 135 q 475 178 475 161 z "},"≤":{"ha":543,"x_min":68,"x_max":477,"o":"m 113 478 q 87 494 99 483 q 68 543 68 514 q 87 591 68 570 q 105 604 96 599 l 376 739 q 407 746 390 746 q 455 726 435 746 q 475 678 475 706 q 455 630 475 650 q 429 614 443 618 l 287 543 l 437 468 q 455 455 446 463 q 475 407 475 435 q 455 359 475 378 q 407 339 435 339 q 369 350 385 339 l 113 478 m 137 132 q 88 152 108 132 q 68 201 68 172 q 88 250 68 229 q 137 270 108 270 l 408 270 q 457 250 437 270 q 477 201 477 229 q 457 152 477 172 q 408 132 437 132 l 137 132 z "},"≥":{"ha":543,"x_min":68,"x_max":477,"o":"m 430 478 q 455 494 444 483 q 475 543 475 514 q 455 591 475 570 q 437 604 447 599 l 166 739 q 136 746 153 746 q 88 726 108 746 q 68 678 68 706 q 87 630 68 650 q 114 614 100 618 l 256 543 l 106 468 q 87 455 96 463 q 68 407 68 435 q 88 359 68 378 q 136 339 108 339 q 174 350 157 339 l 430 478 m 137 132 q 88 152 108 132 q 68 201 68 172 q 88 250 68 229 q 137 270 108 270 l 408 270 q 457 250 437 270 q 477 201 477 229 q 457 152 477 172 q 408 132 437 132 l 137 132 z "},"":{"ha":728,"x_min":0,"x_max":0,"o":""},"":{"ha":733,"x_min":0,"x_max":0,"o":""},"Œ":{"ha":1640,"x_min":68,"x_max":1576,"o":"m 554 834 q 308 732 410 834 q 206 486 206 630 q 308 240 206 342 q 554 138 410 138 q 800 240 698 138 q 902 486 902 342 q 800 732 902 630 q 554 834 698 834 m 902 146 q 898 142 900 144 q 554 0 755 0 q 210 142 353 0 q 68 486 68 285 q 210 830 68 688 q 554 972 353 972 q 898 830 755 972 q 902 826 900 828 l 902 903 q 922 952 902 932 q 971 972 943 972 l 1507 972 q 1556 952 1535 972 q 1576 903 1576 932 q 1556 854 1576 875 q 1507 834 1535 834 l 1040 834 l 1040 681 l 1242 681 q 1291 661 1271 681 q 1312 612 1312 640 q 1291 563 1312 583 q 1242 543 1271 543 l 1040 543 l 1040 138 l 1507 138 q 1556 118 1535 138 q 1576 69 1576 98 q 1556 20 1576 41 q 1507 0 1535 0 l 971 0 q 922 20 943 0 q 902 69 902 41 l 902 146 z "},"œ":{"ha":1301,"x_min":68,"x_max":1223,"o":"m 406 540 q 264 481 323 540 q 205 339 205 422 q 264 197 205 256 q 406 138 323 138 q 548 197 490 138 q 607 339 607 256 q 548 481 607 422 q 406 540 490 540 m 684 145 q 646 99 667 121 q 406 0 547 0 q 167 99 266 0 q 68 338 68 198 q 167 578 68 479 q 406 677 266 677 q 646 578 547 677 q 684 532 667 556 q 724 578 702 556 q 963 677 823 677 q 1202 578 1103 677 l 1201 578 q 1202 577 1201 577 q 1221 529 1221 557 q 1202 481 1221 501 l 1008 289 q 959 269 987 269 q 909 289 930 269 q 890 338 890 309 q 909 387 890 367 l 1045 523 q 963 540 1008 540 q 821 481 880 540 q 762 339 762 422 q 821 197 762 256 q 963 138 880 138 q 1105 196 1046 138 q 1106 197 1105 197 q 1154 217 1126 217 q 1203 197 1183 217 q 1223 149 1223 177 q 1203 100 1223 120 q 1202 98 1202 99 q 963 0 1103 0 q 724 99 823 0 q 684 145 702 121 z "}}}
